<?xml version="1.0" standalone="no"?>
<!DOCTYPE svg PUBLIC "-//W3C//DTD SVG 1.1//EN" "http://www.w3.org/Graphics/SVG/1.1/DTD/svg11.dtd" >
<svg xmlns="http://www.w3.org/2000/svg">
<metadata></metadata>
<defs>
<font id="fortescue_proregular" horiz-adv-x="1187" >
<font-face units-per-em="2048" ascent="1536" descent="-512" />
<missing-glyph horiz-adv-x="501" />
<glyph unicode="&#xfb01;" horiz-adv-x="1144" d="M41 823v95h117l14 14v147q0 183 99.5 296.5t287.5 113.5q250 0 340 -164q21 -40 21 -74q0 -41 -27 -67.5t-62 -26.5t-62 28t-36 83q-8 50 -36.5 79.5t-61 38.5t-76.5 9q-199 0 -199 -316v-147l15 -14h610v-838l109 -66v-14h-406v14l109 66v729l-15 14h-407l-15 -14v-729 l109 -66v-14h-406v14l109 66v729l-14 14h-117z" />
<glyph unicode="&#xfb02;" horiz-adv-x="1142" d="M41 823v95h117l14 14v110q0 106 23 182t74.5 131t139 82t212.5 27h364v-1384l109 -66v-14h-406v14l109 66v1280l-11 10h-165q-62 0 -107 -15t-81 -50.5t-54.5 -101t-18.5 -161.5v-110l15 -14h205v-95h-205l-15 -14v-729l109 -66v-14h-406v14l109 66v729l-14 14h-117z" />
<glyph unicode="&#xfb03;" horiz-adv-x="1769" d="M41 823v95h117l14 14v137q0 153 63.5 235t213.5 82q160 0 243 -81q43 -43 43 -88q0 -42 -31.5 -72.5t-70.5 -30.5q-32 0 -56 22.5t-34 69.5q-11 51 -33 68.5t-61 17.5q-52 0 -70.5 -43.5t-18.5 -138.5v-178l15 -14h438l14 14v147q0 183 99.5 296.5t287.5 113.5 q250 0 340 -164q21 -40 21 -74q0 -41 -26.5 -67.5t-61.5 -26.5t-62 28t-36 83q-22 127 -175 127q-198 0 -198 -316v-147l14 -14h610v-838l78 -66v-14h-344v14l78 66v729l-14 14h-408l-14 -14v-729l108 -66v-14h-405v14l108 66v729l-14 14h-438l-15 -14v-729l109 -66v-14 h-406v14l109 66v729l-14 14h-117z" />
<glyph unicode="&#xfb04;" horiz-adv-x="1798" d="M41 823v95h117l14 14v137q0 153 63.5 235t213.5 82q160 0 243 -81q43 -43 43 -88q0 -42 -31.5 -72.5t-70.5 -30.5q-32 0 -56 22.5t-34 69.5q-11 51 -33 68.5t-61 17.5q-52 0 -70.5 -43.5t-18.5 -138.5v-178l15 -14h438l14 14v110q0 106 23 182t74.5 131t139 82t212.5 27 h364v-1384l109 -66v-14h-406v14l109 66v1280l-10 10h-166q-62 0 -107 -15t-81 -50.5t-54 -101t-18 -161.5v-110l14 -14h205v-95h-205l-14 -14v-729l108 -66v-14h-405v14l108 66v729l-14 14h-438l-15 -14v-729l109 -66v-14h-406v14l109 66v729l-14 14h-117z" />
<glyph horiz-adv-x="0" />
<glyph horiz-adv-x="682" />
<glyph unicode=" "  horiz-adv-x="501" />
<glyph unicode="&#x09;" horiz-adv-x="501" />
<glyph unicode="&#xa0;" horiz-adv-x="501" />
<glyph unicode="!" horiz-adv-x="620" d="M201 109q0 54 39 93.5t94 39.5t94 -39.5t39 -93.5q0 -56 -39 -95t-94 -39t-94 39t-39 95zM215 1364q0 53 34 89t85 36t85 -36t34 -89l-76 -944h-86z" />
<glyph unicode="&#x22;" horiz-adv-x="706" d="M86 1329q0 60 29 97.5t82 37.5t81.5 -37.5t28.5 -97.5q0 -25 -5 -57t-16.5 -79.5t-19.5 -76t-26.5 -93.5t-24.5 -85h-37q-6 20 -24.5 85t-26.5 93.5t-19.5 76t-16.5 79.5t-5 57zM403 1329q0 60 29 97.5t82 37.5t82 -37.5t29 -97.5q0 -25 -5 -57.5t-16.5 -78t-20.5 -77.5 t-26.5 -92.5t-24.5 -85.5h-36q-7 25 -24.5 85.5t-26.5 92.5t-20.5 77.5t-16.5 78t-5 57.5z" />
<glyph unicode="#" horiz-adv-x="1126" d="M2 498v102h283l65 264h-289v103h316l125 497h102l-125 -497h262l125 497h103l-125 -497h280v-103h-307l-65 -264h311v-102h-338l-125 -498h-102l125 498h-263l-124 -498h-103l125 498h-256zM387 600h262l66 264h-262z" />
<glyph unicode="$" horiz-adv-x="1126" d="M51 319q0 51 32 82t75 31q42 0 72.5 -29t37.5 -94q19 -199 273 -215v582q-46 16 -70 25t-67 27t-67 31t-59.5 35.5t-56 43t-44.5 50t-36.5 60.5t-21 71t-8.5 85q0 75 25 137t66.5 104.5t98 73.5t116 47t124.5 21v213h102v-213q182 -6 309 -94q99 -70 99 -148 q0 -38 -25 -63t-61 -25q-37 0 -72.5 28t-58.5 85q-31 64 -73.5 87.5t-117.5 26.5v-540q175 -66 246 -107q170 -98 191 -254q3 -23 3 -49q0 -194 -113 -319t-327 -138v-213h-102v213q-166 11 -295 83t-178 186q-17 38 -17 73zM322 1147q0 -92 57 -151.5t162 -108.5v493 q-93 -16 -156 -76t-63 -157zM643 96q116 17 172.5 91.5t56.5 189.5q0 96 -59.5 155t-169.5 105v-541z" />
<glyph unicode="%" horiz-adv-x="1288" d="M104 1192q0 120 73.5 201.5t184.5 81.5q112 0 185.5 -81.5t73.5 -201.5t-73.5 -201.5t-185.5 -81.5q-111 0 -184.5 81.5t-73.5 201.5zM190 47l824 1417l82 -47l-824 -1417zM225 1192q0 -103 33.5 -163t103.5 -60q71 0 105.5 60.5t34.5 162.5t-34.5 162.5t-105.5 60.5 q-70 0 -103.5 -60t-33.5 -163zM668 272q0 120 73.5 201.5t184.5 81.5t184.5 -81.5t73.5 -201.5t-73 -201t-185 -81t-185 81t-73 201zM788 272q0 -102 34 -162.5t104 -60.5t104.5 60.5t34.5 162.5t-34.5 163t-104.5 61t-104 -60.5t-34 -163.5z" />
<glyph unicode="&#x26;" horiz-adv-x="1421" d="M72 379q0 146 89 258.5t236 185.5q-85 122 -115 197.5t-30 155.5q0 89 51 160.5t132.5 109t174.5 37.5q160 0 256.5 -80t96.5 -201q0 -122 -72.5 -205.5t-247.5 -167.5l326 -481q80 142 145 389l-129 92v15h248v-15l-19 -65q-101 -342 -192 -496q39 -52 55 -73t46 -56 t48.5 -48.5t49.5 -33t64 -30t77 -19.5v-33q-175 0 -280 32.5t-175 111.5q-147 -144 -387 -144q-196 0 -322 113.5t-126 290.5zM279 432q0 -159 93.5 -245.5t248.5 -86.5q124 0 229 95l-391 542q-92 -61 -136 -142t-44 -163zM432 1208q0 -60 33 -114l131 -195q207 94 207 279 q0 100 -50.5 151t-142.5 51q-79 0 -128.5 -49t-49.5 -123z" />
<glyph unicode="'" horiz-adv-x="329" d="M51 1329q0 60 29 97.5t82 37.5t81.5 -37.5t28.5 -97.5q0 -25 -5 -57t-16.5 -79.5t-19.5 -76t-26.5 -93.5t-24.5 -85h-37q-6 20 -24.5 85t-26.5 93.5t-19.5 76t-16.5 79.5t-5 57z" />
<glyph unicode="(" horiz-adv-x="636" d="M86 578q0 296 119.5 520.5t357.5 394.5l23 -29q-175 -182 -251.5 -382.5t-76.5 -503.5q0 -304 76.5 -504.5t251.5 -382.5l-23 -29q-238 170 -357.5 395t-119.5 521z" />
<glyph unicode=")" horiz-adv-x="636" d="M51 -309q175 182 251.5 382.5t76.5 504.5q0 303 -76.5 503.5t-251.5 382.5l23 29q238 -170 357.5 -394.5t119.5 -520.5t-119.5 -521t-357.5 -395z" />
<glyph unicode="*" horiz-adv-x="921" d="M160 920l200 190l-200 188l12 21l234 -109l40 254h23l41 -256l238 111l12 -21l-203 -188l203 -190l-12 -17l-238 111l-41 -258h-23l-40 256l-234 -109z" />
<glyph unicode="+" horiz-adv-x="1044" d="M74 559v103h395v395h102v-395h398v-103h-398v-395h-102v395h-395z" />
<glyph unicode="," horiz-adv-x="487" d="M96 109q0 54 39 93.5t94 39.5q75 0 113.5 -52t38.5 -145q0 -105 -54.5 -204.5t-168.5 -182.5l-23 20q70 66 96.5 115.5t26.5 108.5q0 36 -13.5 53.5t-51.5 26.5q-97 23 -97 127z" />
<glyph unicode="-" horiz-adv-x="864" d="M70 596v102h712v-102h-712z" />
<glyph unicode="." horiz-adv-x="487" d="M96 109q0 54 39 93.5t94 39.5q54 0 93.5 -39.5t39.5 -93.5q0 -55 -39.5 -94.5t-93.5 -39.5q-55 0 -94 39t-39 95z" />
<glyph unicode="/" horiz-adv-x="839" d="M-20 0l706 1464h174l-706 -1464h-174z" />
<glyph unicode="0" d="M45 733q0 347 151 551.5t398 204.5t398 -204.5t151 -551.5t-151 -552.5t-398 -205.5t-398 205.5t-151 552.5zM252 733q0 -200 37 -345t114.5 -227.5t190.5 -82.5t190.5 82.5t114.5 227.5t37 345q0 199 -37 344t-114.5 227t-190.5 82t-190.5 -82t-114.5 -227t-37 -344z " />
<glyph unicode="1" d="M305 1294v27l438 203v-1407l140 -103v-14h-486v14l140 103v1079q0 70 -15.5 96.5t-64.5 26.5q-46 0 -152 -25z" />
<glyph unicode="2" d="M63 0v31q55 51 101 95t123.5 124t138.5 151t130.5 164t115.5 175.5t77 172.5t31 166q0 144 -66 222.5t-194 78.5q-64 0 -125 -31.5t-107.5 -82t-81 -107.5t-54.5 -115l-66 23q15 57 40 111.5t68.5 112t97 100.5t131.5 70.5t167 27.5q176 0 289.5 -109t113.5 -276 q0 -210 -152.5 -428t-453.5 -477h512l162 231h14l-71 -430h-941z" />
<glyph unicode="3" d="M61 268q0 49 33 79t78 30q39 0 70.5 -24.5t42.5 -73.5q25 -97 82 -149t178 -52q151 0 232 99t81 265q0 135 -109 217.5t-280 104.5v53q61 0 118 18.5t105 54t76.5 95.5t28.5 135q0 128 -65 195t-191 67q-103 0 -186.5 -62t-137.5 -165l-72 25q32 66 69.5 117.5t90.5 97 t126 70t161 24.5q162 0 277.5 -98.5t115.5 -251.5q0 -122 -67.5 -208.5t-182.5 -119.5q67 -17 123.5 -46t104.5 -72.5t75 -108t27 -142.5q0 -149 -67.5 -255.5t-184 -159t-268.5 -52.5q-180 0 -300 62t-167 164q-17 35 -17 67z" />
<glyph unicode="4" d="M63 459v24l758 1041h25v-963h221v-102h-221v-342l139 -103v-14h-493v14l139 103v342h-568zM250 561h381v524z" />
<glyph unicode="5" d="M68 258q0 49 31 79t73 30q37 0 67 -26.5t40 -78.5q19 -94 88.5 -139t171.5 -45q67 0 121.5 23.5t90 62.5t60 93t35 112.5t10.5 122.5q0 192 -75.5 296.5t-223.5 104.5q-106 0 -196.5 -71.5t-151.5 -176.5h-86l104 819h781l-27 -172h-672l-55 -448q52 64 147.5 109.5 t208.5 45.5q67 0 131 -15.5t125 -52t106.5 -89.5t73 -134t27.5 -180q0 -119 -32 -214.5t-84.5 -157.5t-123.5 -104t-144 -59.5t-150 -17.5q-358 0 -455 213q-16 33 -16 70z" />
<glyph unicode="6" d="M145 512q0 114 25.5 221t69 191t100 160.5t119 133.5t125 105.5t119 81t100 55t69.5 32.5l25 11l27 -63q-10 -4 -26.5 -12.5t-66 -39t-96 -66t-107.5 -94.5t-110 -124t-93 -154.5t-67 -185.5q112 123 295 123q171 0 281 -115.5t110 -312.5q0 -225 -117.5 -354.5 t-328.5 -129.5q-67 0 -126.5 12.5t-121 49t-105.5 94t-72 155.5t-28 226zM352 432q0 -354 246 -354q240 0 240 354q0 170 -63.5 259t-176.5 89q-109 0 -177.5 -90.5t-68.5 -257.5z" />
<glyph unicode="7" d="M154 1038l43 426h899l-537 -1464h-151q17 22 34.5 53.5t25.5 52.5l9 21l418 1139h-528l-199 -228h-14z" />
<glyph unicode="8" d="M133 369q0 124 80.5 229.5t218.5 159.5q-106 75 -164.5 158.5t-58.5 201.5q0 92 33 165t88.5 117t123 66.5t140.5 22.5q163 0 268 -96.5t105 -259.5q0 -101 -58.5 -184.5t-158.5 -121.5q68 -40 115 -75t94.5 -85t71.5 -112.5t24 -136.5q0 -140 -65 -242.5t-168 -151.5 t-228 -49q-77 0 -144 13t-126 42.5t-101 74t-66 112t-24 152.5zM346 377q0 -137 63 -218t185 -81q65 0 114 22.5t77.5 62t42.5 88t14 105.5q0 29 -6.5 56t-21.5 52.5t-29.5 45.5t-42 43t-46 37.5t-54.5 37t-55 34t-59 34.5q-92 -54 -137 -139.5t-45 -179.5zM393 1167 q0 -39 15.5 -74.5t38 -62.5t62.5 -57t72.5 -50t84.5 -49q62 32 95.5 108t33.5 181q0 101 -56 162t-145 61q-91 0 -146 -58t-55 -161z" />
<glyph unicode="9" d="M145 1006q0 224 118 353.5t329 129.5q67 0 126 -12.5t121 -49t105.5 -94t71.5 -155.5t28 -226q0 -145 -41.5 -278t-107.5 -230t-146.5 -180t-160.5 -137.5t-146 -93t-108 -55.5l-41 -17l-27 64q9 4 26 12.5t66 39t96 66t107.5 94.5t109.5 123.5t93 154t67 185.5 q-111 -122 -294 -122q-171 0 -281.5 115.5t-110.5 312.5zM352 1032q0 -170 63.5 -259t176.5 -89q109 0 177.5 90.5t68.5 257.5q0 354 -246 354q-240 0 -240 -354z" />
<glyph unicode=":" horiz-adv-x="487" d="M96 109q0 54 39 93.5t94 39.5q54 0 93.5 -39.5t39.5 -93.5q0 -55 -39.5 -94.5t-93.5 -39.5q-55 0 -94 39t-39 95zM96 805q0 54 39 93.5t94 39.5q54 0 93.5 -39.5t39.5 -93.5q0 -55 -39.5 -94t-93.5 -39q-55 0 -94 39t-39 94z" />
<glyph unicode=";" horiz-adv-x="487" d="M96 109q0 54 39 93.5t94 39.5q75 0 113.5 -52t38.5 -145q0 -105 -54.5 -204.5t-168.5 -182.5l-23 20q70 66 96.5 115.5t26.5 108.5q0 66 -65 80q-97 23 -97 127zM96 805q0 54 39 93.5t94 39.5q54 0 93.5 -39.5t39.5 -93.5q0 -55 -39.5 -94t-93.5 -39q-55 0 -94 39t-39 94 z" />
<glyph unicode="&#x3c;" horiz-adv-x="1044" d="M78 502v37l887 501v-131l-695 -389l695 -389v-131z" />
<glyph unicode="=" horiz-adv-x="1044" d="M84 432v103h877v-103h-877zM84 815v103h877v-103h-877z" />
<glyph unicode="&#x3e;" horiz-adv-x="1044" d="M80 0v131l694 389l-694 389v131l887 -501v-37z" />
<glyph unicode="?" horiz-adv-x="1142" d="M133 1139q0 34 25 86q134 264 454 264q201 0 325 -91t124 -249q0 -108 -48.5 -195.5t-185.5 -191.5q-59 -45 -95 -85.5t-53.5 -86t-22.5 -86.5t-5 -107h-84v133q0 62 15.5 113t40.5 87t55 68.5t60.5 65.5t55.5 69.5t40.5 89.5t15.5 118q0 117 -66 185.5t-172 68.5 q-63 0 -108 -18t-74.5 -57.5t-47.5 -84t-36 -115.5q-10 -40 -39.5 -61t-66.5 -21q-43 0 -75 27t-32 74zM475 109q0 54 39 93.5t94 39.5t94 -39.5t39 -93.5q0 -56 -39 -95t-94 -39t-94 39t-39 95z" />
<glyph unicode="@" horiz-adv-x="1871" d="M201 502q0 158 61.5 301.5t166 247.5t249 165.5t303.5 61.5q204 0 361.5 -79t246 -227t88.5 -343q0 -218 -92.5 -346.5t-238.5 -128.5q-83 0 -132 50t-49 128q-57 -90 -129.5 -134t-175.5 -44q-128 0 -198 78.5t-70 207.5q0 108 55 210t151.5 167.5t207.5 65.5 q144 0 180 -113l16 78h137l-86 -447q-4 -28 -4 -39q0 -49 25 -75.5t65 -26.5q183 0 183 369q0 133 -41 237.5t-114 171t-171 101.5t-215 35q-113 0 -218.5 -45.5t-189 -129t-134 -213t-50.5 -284.5q0 -129 33 -237.5t89.5 -184t132 -128.5t161 -77.5t176.5 -24.5 q81 0 152 10.5t152 37t161 80.5t153 133l31 -29q-111 -166 -284.5 -251t-364.5 -85q-213 0 -392 98.5t-283.5 272.5t-104.5 385zM754 430q0 -170 137 -170q55 0 101 19.5t77 53.5t52.5 79.5t31.5 97.5t10 108q0 74 -36.5 117t-108.5 43q-50 0 -94 -21t-74.5 -55.5t-52.5 -80 t-32.5 -94t-10.5 -97.5z" />
<glyph unicode="A" horiz-adv-x="1503" d="M20 0v14l140 103l575 1394h37l574 -1394l137 -103v-14h-496v14l139 103l-147 356h-559l-148 -356l140 -103v-14h-392zM463 575h475l-217 523l-19 84l-12 -54z" />
<glyph unicode="B" horiz-adv-x="1316" d="M53 0v14l140 103v1231l-140 102v14h580q69 0 132 -8t134 -32.5t122 -63.5t84.5 -107t33.5 -157q0 -69 -23.5 -125.5t-63 -93t-84 -59t-94.5 -32.5q63 -10 121 -34.5t111 -66.5t85 -110t32 -153q0 -109 -35.5 -191.5t-99.5 -132t-146.5 -74t-181.5 -24.5h-707zM408 117 l14 -15h244q325 0 325 320q0 92 -27.5 156.5t-81.5 100t-122.5 51t-161.5 15.5h-176l-14 -16v-612zM408 854l14 -14h213q41 0 78.5 6t77 23.5t68 45t47 74t18.5 107.5q0 64 -17 111.5t-45 76.5t-70 47t-86.5 24.5t-99.5 6.5h-184l-14 -14v-494z" />
<glyph unicode="C" horiz-adv-x="1447" d="M59 733q0 211 93.5 383.5t262 272.5t378.5 100q93 0 203.5 -22t207.5 -68v-332h-33q-90 319 -387 319q-154 0 -264 -87t-162.5 -232t-52.5 -334q0 -293 144 -474t370 -181q172 0 298.5 81t215.5 257l58 -39q-79 -198 -225 -300t-347 -102q-239 0 -412 95t-260.5 265 t-87.5 398z" />
<glyph unicode="D" horiz-adv-x="1484" d="M55 0v14l140 103v1231l-140 102v14h650q217 0 378.5 -94.5t245.5 -260t84 -378.5q0 -212 -84 -377t-245.5 -259.5t-378.5 -94.5h-650zM410 117l14 -15h250q257 0 385.5 168.5t128.5 460.5q0 143 -31 258t-93 199t-161 129t-229 45h-250l-14 -14v-1231z" />
<glyph unicode="E" horiz-adv-x="1261" d="M51 0v14l139 103v1231l-139 102v14h1041l36 -301h-14l-143 199h-551l-14 -14v-500l14 -14h495l70 118h12v-338h-12l-70 117h-495l-14 -14v-600l14 -15h569l199 228h14l-51 -330h-1100z" />
<glyph unicode="F" horiz-adv-x="1173" d="M51 0v14l139 103v1231l-139 102v14h1039l36 -301h-14l-143 199h-547l-16 -14v-512l16 -15h465l69 119h13v-338h-13l-69 117h-465l-16 -14v-588l139 -103v-14h-494z" />
<glyph unicode="G" horiz-adv-x="1429" d="M59 733q0 157 59.5 297.5t161 241t242.5 159t299 58.5q114 0 233 -22.5t206 -73.5v-326h-29q-17 50 -36.5 90.5t-53.5 85t-77 74.5t-107 49.5t-142 19.5q-228 0 -369 -181.5t-141 -471.5q0 -298 154.5 -476.5t427.5 -178.5q157 0 157 80v387l-14 14h-164v103h533v-15 l-139 -102v-312q0 -30 11 -54t21 -33l11 -9q-89 -87 -192.5 -124.5t-242.5 -37.5q-380 0 -594.5 203t-214.5 555z" />
<glyph unicode="H" horiz-adv-x="1568" d="M63 0v14l140 103v1231l-140 102v14h494v-14l-139 -102v-467l14 -15h705l14 15v467l-139 102v14h493v-14l-139 -102v-1231l139 -103v-14h-493v14l139 103v633l-14 14h-705l-14 -14v-633l139 -103v-14h-494z" />
<glyph unicode="I" horiz-adv-x="616" d="M61 0v14l140 103v1231l-140 102v14h494v-14l-139 -102v-1231l139 -103v-14h-494z" />
<glyph unicode="J" horiz-adv-x="618" d="M-90 -537q161 59 232 177t71 309v1399l-139 102v14h493v-14l-139 -102v-1348q0 -105 -26.5 -195t-85 -171t-161.5 -141.5t-245 -92.5v63z" />
<glyph unicode="K" horiz-adv-x="1331" d="M53 0v14l140 103v1231l-140 102v14h494v-14l-139 -102v-519l575 560l-88 61v14h379v-14l-182 -100l-480 -465l144 49l573 -1022l-153 86l-164 119l-484 688l-120 -117v-571l139 -103v-14h-494z" />
<glyph unicode="L" horiz-adv-x="1185" d="M51 0v14l139 103v1231l-139 102v14h494v-14l-139 -102v-1231l14 -15h528l199 228h14l-51 -330h-1059z" />
<glyph unicode="M" horiz-adv-x="1792" d="M51 0v14l139 103v1231l-139 102v14h367l438 -1079l27 -129l24 98l459 1110h367v-14l-138 -102v-1231l138 -103v-14h-492v14l139 103v1132l-20 -96l-479 -1153h-109l-463 1137l-16 112v-1132l137 -103v-14h-379z" />
<glyph unicode="N" horiz-adv-x="1495" d="M51 0v14l139 103v1231l-139 102v14h303l822 -979l24 -96v959l-139 102v14h381v-14l-139 -102v-1348l-988 1176l-22 94v-1153l137 -103v-14h-379z" />
<glyph unicode="O" horiz-adv-x="1572" d="M68 733q0 212 89 384t253.5 272t375.5 100q210 0 375 -100t254.5 -272t89.5 -384t-89.5 -384.5t-254.5 -273t-375 -100.5t-375 100.5t-254 273t-89 384.5zM313 733q0 -143 29.5 -261.5t87 -207t148.5 -137.5t208 -49q154 0 262.5 86t160 231.5t51.5 337.5 q0 194 -51.5 339t-159.5 229.5t-263 84.5q-117 0 -208 -48t-148.5 -135.5t-87 -206.5t-29.5 -263z" />
<glyph unicode="P" horiz-adv-x="1224" d="M55 0v14l140 103v1231l-140 102v14h570q54 0 103 -4.5t105.5 -17t104 -33t92.5 -54.5t76 -79t49.5 -109.5t18.5 -142.5t-18.5 -142.5t-49.5 -109.5t-76 -79t-92.5 -54.5t-104 -33t-105.5 -17t-103 -4.5h-199l-16 -15v-452l139 -103v-14h-494zM410 702l16 -16h147 q75 0 130 7.5t105.5 29t81.5 58.5t49.5 98t18.5 145t-18.5 145t-49.5 98t-81.5 58.5t-105.5 29t-130 7.5h-147l-16 -14v-646z" />
<glyph unicode="Q" horiz-adv-x="1572" d="M68 733q0 212 89 384t253.5 272t375.5 100q210 0 375 -100t254.5 -272t89.5 -384t-89.5 -384.5t-254.5 -273t-375 -100.5q-26 0 -50 1.5t-35 3.5l-11 2l-35 -80q57 16 121 16q190 0 375 -164q42 -37 90 -37q33 0 65.5 16.5t49.5 32.5l16 17q6 -17 6 -37q0 -92 -145 -133 q-36 -10 -82 -10q-43 0 -88 13t-78.5 29t-75.5 46t-64.5 48.5t-60.5 51.5l-10 8q-36 31 -96 31q-92 0 -201 -66q10 16 45 109q13 37 13 59q0 84 -95 125q-175 94 -273.5 273t-98.5 403zM313 733q0 -143 29.5 -261.5t87 -207t148.5 -137.5t208 -49q154 0 262.5 86t160 231.5 t51.5 337.5q0 194 -51.5 339t-159.5 229.5t-263 84.5q-117 0 -208 -48t-148.5 -135.5t-87 -206.5t-29.5 -263z" />
<glyph unicode="R" horiz-adv-x="1357" d="M55 0v14l140 103v1231l-140 102v14h668q33 0 66.5 -2.5t83.5 -12.5t93 -26.5t88.5 -47.5t78 -72.5t53 -104.5t20.5 -141q0 -91 -31 -164.5t-86.5 -122.5t-123 -79t-148.5 -44l98 -29l439 -706l-213 88l-160 117l-336 518h-221l-14 -14v-504l139 -103v-14h-494zM410 752 l14 -15h199q100 0 182 34t134 104.5t52 166.5q0 74 -23 132t-57.5 92.5t-79 57t-82.5 30.5t-73 8h-252l-14 -14v-596z" />
<glyph unicode="S" horiz-adv-x="1163" d="M66 190v375h57q116 -487 461 -487q144 0 215 84t71 215q0 57 -26 102t-70 75t-101 55.5t-120 48t-126.5 47.5t-120.5 60t-101 79t-70 110.5t-26 149.5q0 101 44 178t116.5 120.5t154 65t168.5 21.5q221 0 389 -94v-320h-41q-12 141 -103.5 226t-236.5 85 q-68 0 -130 -24.5t-106.5 -80.5t-44.5 -134q0 -57 26 -102.5t70 -76.5t101.5 -57.5t120.5 -50t126 -48.5t120.5 -59t101.5 -76t70 -104t26 -139q0 -204 -125 -331.5t-362 -127.5q-155 0 -301 57t-227 158z" />
<glyph unicode="T" horiz-adv-x="1413" d="M33 1135l51 329h1247l51 -329h-14l-158 227h-381l-14 -14v-1231l139 -103v-14h-493v14l139 103v1231l-14 14h-381l-158 -227h-14z" />
<glyph unicode="U" horiz-adv-x="1536" d="M51 1450v14h494v-14l-139 -102v-807q0 -79 8.5 -141t35.5 -127t72 -108.5t123 -71t184 -27.5q108 0 184 19.5t123.5 54t73.5 94t35.5 127.5t9.5 167v820l-139 102v14h381v-14l-139 -102v-895q0 -83 -13 -150.5t-48.5 -132.5t-93.5 -109t-153 -71t-221 -27 q-180 0 -303 34.5t-197 108t-106.5 179t-32.5 256.5v807z" />
<glyph unicode="V" horiz-adv-x="1425" d="M12 1450v14h502v-14l-139 -102l364 -967l25 -107l18 80l385 994l-139 102v14h389v-14l-139 -102l-524 -1348h-95l-507 1348z" />
<glyph unicode="W" horiz-adv-x="2277" d="M10 1450v14h484v-14l-115 -102l352 -934l37 -162l31 135l274 690l-104 271l-140 102v14h502v-14l-139 -102l371 -981l26 -115l15 63l401 1033l-139 102v14h389v-14l-139 -102l-525 -1348h-110l-355 932l-368 -932h-99l-509 1348z" />
<glyph unicode="X" horiz-adv-x="1648" d="M20 0v14l160 103l522 626l-479 605l-139 102v14h494v-14l-97 -70l365 -462l360 432l-139 100v14h430v-14l-160 -102l-426 -512l570 -719l139 -103v-14h-559v14l139 103l-434 547l-455 -547l140 -103v-14h-431z" />
<glyph unicode="Y" horiz-adv-x="1392" d="M37 1450v14h541v-14l-140 -102l299 -463l29 -123l27 117l297 469l-140 102v14h402v-14l-140 -102l-372 -588v-643l139 -103v-14h-494v14l140 103v532l-449 699z" />
<glyph unicode="Z" horiz-adv-x="1294" d="M20 0l846 1362h-600l-123 -199h-14l37 301h1038l-848 -1362h736l157 228h15l-52 -330h-1192z" />
<glyph unicode="[" horiz-adv-x="694" d="M164 -322v1786h459v-102h-246l-15 -14v-1553l15 -14h244v-103h-457z" />
<glyph unicode="\" horiz-adv-x="839" d="M-20 1464h174l706 -1464h-174z" />
<glyph unicode="]" horiz-adv-x="694" d="M72 -219h245l15 14v1553l-15 14h-245v102h458v-1786h-458v103z" />
<glyph unicode="^" horiz-adv-x="1019" d="M51 733l441 731h36l441 -731h-172l-287 475l-287 -475h-172z" />
<glyph unicode="_" horiz-adv-x="1048" d="M0 0h1049v-102h-1049v102z" />
<glyph unicode="`" horiz-adv-x="675" d="M145 1305q0 39 29 68.5t72 29.5q62 0 100 -53l182 -277h-47l-278 148q-58 33 -58 84z" />
<glyph unicode="a" horiz-adv-x="974" d="M66 225q0 49 18.5 91t50.5 73.5t78 57.5t97 44.5t112 32.5t118.5 22.5t121.5 14.5v76q0 110 -41.5 160.5t-137.5 50.5q-85 0 -136 -32t-71 -116q-11 -46 -39.5 -69t-62.5 -23q-36 0 -62 23t-26 61q0 47 41 99q63 81 159 116t197 35q85 0 149.5 -17t105.5 -46t66.5 -71.5 t35.5 -89t10 -102.5v-536l108 -66v-14h-296v100q-42 -60 -117 -92.5t-166 -32.5q-65 0 -118 12t-98.5 39.5t-71 78t-25.5 120.5zM262 238q0 -79 45.5 -123.5t114.5 -44.5q107 0 173.5 66t66.5 163v178q-81 -8 -137 -17t-109 -26.5t-84.5 -42t-50.5 -63t-19 -90.5z" />
<glyph unicode="b" horiz-adv-x="1093" d="M10 1450v14l297 84v-739q37 57 110.5 95t149.5 38q206 0 334.5 -133.5t128.5 -349.5q0 -134 -54 -243t-161 -175t-248 -66q-96 0 -178.5 46.5t-126.5 119.5l-129 -141h-14v1397zM307 313q0 -106 76.5 -174.5t183.5 -68.5q122 0 185 102t63 287q0 188 -62.5 288.5 t-185.5 100.5q-107 0 -183.5 -74.5t-76.5 -191.5v-269z" />
<glyph unicode="c" horiz-adv-x="1003" d="M53 459q0 111 44 205t114.5 153t155.5 92t172 33q89 0 172.5 -27.5t142.5 -83.5q68 -65 68 -129q0 -41 -28 -68.5t-65 -27.5q-34 0 -62.5 27t-41.5 82q-14 65 -57.5 99t-128.5 34q-90 0 -153 -57t-90.5 -142.5t-27.5 -189.5q0 -179 81 -284t214 -105q215 0 340 192 l41 -59q-44 -91 -154.5 -159.5t-226.5 -68.5q-145 0 -259 54t-182.5 165t-68.5 265z" />
<glyph unicode="d" horiz-adv-x="1103" d="M63 459q0 216 128.5 349.5t334.5 133.5q76 0 149.5 -38t110.5 -95v588l-108 53v14l297 84v-1468l108 -66v-14h-252v141q-44 -72 -127.5 -119t-177.5 -47q-141 0 -248 66t-161 175t-54 243zM279 459q0 -185 62.5 -287t184.5 -102q107 0 183.5 68.5t76.5 174.5v269 q0 117 -76.5 191.5t-183.5 74.5q-123 0 -185 -100t-62 -289z" />
<glyph unicode="e" horiz-adv-x="1001" d="M59 459q0 141 66 253t171.5 171t227.5 59q184 0 306 -122.5t122 -303.5v-57h-678q0 -192 76 -290.5t213 -98.5q238 0 348 225l50 -45q-60 -130 -161.5 -202.5t-236.5 -72.5q-146 0 -258.5 54t-179 165t-66.5 265zM276 553h488v18q0 51 -14 98.5t-42 88t-77 65.5t-111 25 q-63 0 -110.5 -25.5t-75 -69t-42 -93.5t-16.5 -107z" />
<glyph unicode="f" horiz-adv-x="643" d="M41 823v95h117l14 14v254q0 144 74.5 223.5t220.5 79.5q158 0 252 -82q51 -43 51 -92q0 -40 -31.5 -69t-72.5 -29q-34 0 -60.5 22.5t-36.5 69.5q-11 50 -36.5 68t-65.5 18q-62 0 -84.5 -44t-22.5 -139v-280l15 -14h205v-95h-205l-15 -14v-729l109 -66v-14h-406v14l109 66 v729l-14 14h-117z" />
<glyph unicode="g" horiz-adv-x="1138" d="M45 -215q0 77 35 134.5t82 80.5q-45 34 -63.5 86.5t-18.5 99.5l258 140q-191 88 -191 288q0 67 23.5 123t62.5 93.5t91 63.5t109 38t116 12q144 0 252 -63l274 104l17 -20l-174 -201q34 -61 34 -150q0 -83 -34.5 -148t-93 -103.5t-128.5 -58t-147 -19.5h-14 q-40 0 -85.5 -12.5t-81.5 -31t-66.5 -36.5t-47.5 -31l-16 -12q2 -2 6.5 -6t27.5 -14.5t57 -19.5t100.5 -19t150.5 -15q50 -3 91.5 -7t97.5 -14.5t99.5 -24.5t89.5 -38t76 -54.5t49 -75.5t19 -99q0 -78 -37 -140.5t-94.5 -100.5t-132 -63.5t-144 -35.5t-137.5 -10 q-65 0 -132.5 11.5t-136.5 39.5t-122 68t-87 102.5t-34 138.5zM217 -215q0 -71 29.5 -125t80.5 -85.5t114 -47.5t137 -16q146 0 250 57t104 149q0 38 -17 68.5t-49.5 51t-68.5 35t-87 23.5t-90 14t-92 9q-185 14 -249 31q-62 -62 -62 -164zM326 614q0 -107 60.5 -175 t162.5 -68q104 0 164.5 68t60.5 175q0 102 -61.5 172t-163.5 70q-101 0 -162 -70t-61 -172z" />
<glyph unicode="h" horiz-adv-x="1116" d="M18 0v14l109 66v1317l-109 53v14l297 84v-807q10 8 27.5 21.5t69.5 48.5t100 61.5t108.5 48t106.5 21.5q130 0 193 -76.5t63 -214.5v-571l109 -66v-14h-406v14l109 66v571q0 170 -160 170q-56 0 -136 -46t-132 -92l-52 -46v-557l109 -66v-14h-406z" />
<glyph unicode="i" horiz-adv-x="487" d="M31 0v14l108 66v729l-108 51v14l297 87v-881l108 -66v-14h-405zM94 1337q0 54 37 90.5t90 36.5t90 -36.5t37 -90.5t-37 -90.5t-90 -36.5t-90 36.5t-37 90.5z" />
<glyph unicode="j" horiz-adv-x="460" d="M-43 -563q45 40 77 77.5t52 79t31.5 74.5t16.5 84.5t6 86t1 100.5v870l-108 51v14l297 87v-961q0 -61 -4.5 -112t-10.5 -92.5t-21 -78.5t-28 -64.5t-39.5 -57t-47 -49.5t-59.5 -48t-68 -46.5t-81 -51.5zM98 1337q0 51 36.5 88t88.5 37t88.5 -37t36.5 -88q0 -53 -36.5 -90 t-88.5 -37t-88.5 37t-36.5 90z" />
<glyph unicode="k" horiz-adv-x="927" d="M16 0v14l109 66v1317l-109 53v14l297 84v-962l310 264l-86 53v15h368v-15l-166 -80l-247 -211l47 21l413 -721l-188 88l-92 80l-275 448l-84 -67v-381l109 -66v-14h-406z" />
<glyph unicode="l" horiz-adv-x="499" d="M45 0v14l109 66v1317l-109 53v14l297 84v-1468l109 -66v-14h-406z" />
<glyph unicode="m" horiz-adv-x="1691" d="M45 0v14l109 66v729l-109 53v15l297 84v-220q7 8 20.5 21.5t54.5 48.5t81.5 61.5t97 48t106.5 21.5q205 0 234 -207q4 6 23.5 25t58 51t81.5 60.5t99 49.5t105 21q129 0 184 -75t55 -216v-571l109 -66v-14h-406v14l109 66v571q0 94 -36 132t-108 38q-36 0 -76.5 -19 t-73 -46t-60 -54t-42.5 -46l-16 -19v-557l109 -66v-14h-406v14l109 66v571q0 94 -36 132t-108 38q-36 0 -76.5 -19t-73 -46t-60 -54t-42.5 -46l-16 -19v-557l109 -66v-14h-406z" />
<glyph unicode="n" horiz-adv-x="1134" d="M45 0v14l109 66v729l-109 53v15l297 84v-220q10 8 27.5 21.5t69 48.5t99 61.5t107 48t103.5 21.5q128 0 182.5 -75t54.5 -216v-571l109 -66v-14h-406v14l109 66v571q0 94 -35.5 132t-106.5 38q-36 0 -81 -19t-84.5 -46t-73.5 -54t-54 -46l-20 -19v-557l109 -66v-14h-406z " />
<glyph unicode="o" horiz-adv-x="1077" d="M49 459q0 203 140 343t350 140t349.5 -140t139.5 -343t-139.5 -343.5t-349.5 -140.5t-350 140.5t-140 343.5zM264 459q0 -174 70 -281.5t205 -107.5t204.5 107.5t69.5 281.5t-69.5 281.5t-204.5 107.5t-205 -107.5t-70 -281.5z" />
<glyph unicode="p" horiz-adv-x="1103" d="M25 -537l108 66v1309l-108 65v15h251v-142q44 72 127.5 119t178.5 47q141 0 247.5 -65.5t160.5 -174.5t54 -243q0 -216 -128 -350t-334 -134q-76 0 -149.5 38.5t-110.5 95.5v-580l108 -66v-14h-405v14zM322 332q0 -114 76.5 -188t183.5 -74q123 0 185 100t62 289 q0 185 -62.5 287t-184.5 102q-107 0 -183.5 -69t-76.5 -175v-272z" />
<glyph unicode="q" horiz-adv-x="1107" d="M59 459q0 134 54 243t161 174.5t248 65.5q93 0 174 -45.5t129 -116.5l131 138h15v-1387l108 -66v-16h-405v16l108 66v578q-37 -57 -111 -95.5t-149 -38.5q-206 0 -334.5 134t-128.5 350zM274 459q0 -188 62.5 -288.5t185.5 -100.5q107 0 183.5 74t76.5 188v272 q0 106 -76.5 175t-183.5 69q-122 0 -185 -102t-63 -287z" />
<glyph unicode="r" horiz-adv-x="825" d="M25 0v14l108 66v729l-108 53v15l297 84v-220q57 89 134 144t165 55q93 0 155 -58.5t62 -142.5q0 -44 -26 -71t-62 -27q-37 0 -68 29t-39 84q-7 52 -28.5 74t-59.5 22q-47 0 -100.5 -48.5t-93 -135.5t-39.5 -181v-405l108 -66v-14h-405z" />
<glyph unicode="s" horiz-adv-x="831" d="M51 109v245h33q46 -144 129 -214t193 -70q86 0 135 42t49 124q0 41 -28.5 69.5t-73.5 45t-100 31.5t-110 35t-100 49t-73.5 80.5t-28.5 121.5q0 71 32 125.5t84.5 86t112 47t121.5 15.5q149 0 279 -68v-229h-21q-57 203 -252 203q-70 0 -121 -38t-51 -116q0 -42 28.5 -72 t74.5 -47.5t101.5 -32.5t111 -34t101.5 -44.5t74.5 -71.5t28.5 -109q0 -79 -30.5 -140t-83 -96.5t-118.5 -53.5t-142 -18q-111 0 -211 40t-144 94z" />
<glyph unicode="t" horiz-adv-x="718" d="M31 823v37q63 23 115.5 72.5t82 104t50.5 106t29 84.5l7 33h37v-328l15 -14h204v-95h-204l-15 -14v-549q0 -83 35 -135.5t109 -52.5q112 0 182 92l37 -29q-12 -21 -21.5 -35t-33.5 -40t-48 -42.5t-63 -29.5t-82 -13q-150 0 -226.5 75t-76.5 218v541l-14 14h-119z" />
<glyph unicode="u" horiz-adv-x="1107" d="M23 862v15l296 84v-695q0 -94 35.5 -132t106.5 -38q36 0 81 19t84.5 46t73.5 54.5t54 46.5l20 19v528l-108 53v15l297 84v-881l108 -66v-14h-297v176q-9 -8 -25.5 -21.5t-64.5 -48.5t-94 -61.5t-105 -48t-106 -21.5q-135 0 -191.5 74.5t-56.5 216.5v543z" />
<glyph unicode="v" horiz-adv-x="1013" d="M27 903v15h399v-15l-88 -53l213 -551l16 -70l21 93l205 530l-86 51v15h282v-15l-106 -63l-324 -840h-98l-324 838z" />
<glyph unicode="w" horiz-adv-x="1447" d="M23 903v15h391v-15l-84 -51l174 -494l28 -129l37 162l185 527h94l196 -560l29 -129l37 162l160 459l-86 53v15h280v-15l-104 -63l-293 -840h-102l-220 627l-219 -627h-100l-293 838z" />
<glyph unicode="x" horiz-adv-x="1017" d="M10 0v14l109 66l293 373l-291 391l-96 59v15h352v-15l-64 -39l205 -272l201 252l-94 59v15h311v-15l-109 -65l-254 -316l332 -446l103 -62v-14h-377v14l71 43l-233 324l-246 -309l94 -58v-14h-307z" />
<glyph unicode="y" horiz-adv-x="952" d="M-4 903v15h387v-15l-86 -51l207 -535l16 -67l17 76l202 526l-84 51v15h281v-15l-111 -65l-463 -1223q-29 -65 -55 -105t-51.5 -57.5t-44.5 -22.5t-47 -5q-44 0 -69 27.5t-25 64.5q0 31 18 56t53 34q88 22 116 38t50 68l113 307l-318 820z" />
<glyph unicode="z" horiz-adv-x="923" d="M51 0l557 823h-415l-66 -112h-14v207h755l-559 -824h482l65 111h14v-205h-819z" />
<glyph unicode="{" horiz-adv-x="1024" d="M221 549v45q141 0 141 221v416q0 59 20 101.5t52.5 67.5t86.5 39.5t111 19.5t136 5v-32q-48 0 -86 -11t-71.5 -38t-51.5 -78.5t-18 -126.5v-404q0 -80 -37 -130.5t-107 -65.5l-49 -7l49 -6q70 -15 107 -65.5t37 -130.5v-404q0 -75 18 -126.5t51.5 -78.5t71.5 -38t86 -11 v-33q-65 0 -114.5 3.5t-98 12.5t-82 26t-59.5 42t-39 63t-13 87v416q0 221 -141 221z" />
<glyph unicode="|" horiz-adv-x="409" d="M154 -551v2015h102v-2015h-102z" />
<glyph unicode="}" horiz-adv-x="1024" d="M256 -289q48 0 86 11t71.5 38t51.5 78.5t18 126.5v404q0 80 37 130.5t107 65.5l49 6l-49 7q-70 15 -107 65.5t-37 130.5v404q0 75 -18 126.5t-51.5 78.5t-71.5 38t-86 11v32q79 0 136 -5t111 -19.5t86.5 -39.5t52.5 -67.5t20 -101.5v-416q0 -221 141 -221v-45 q-141 0 -141 -221v-416q0 -49 -13 -87t-39 -63t-59.5 -42t-82 -26t-98 -12.5t-114.5 -3.5v33z" />
<glyph unicode="~" horiz-adv-x="1161" d="M88 403q0 7 1 20t8.5 50t19 71t36 75t56.5 70.5t84 50t115 20.5q57 0 104.5 -20t80.5 -48t63.5 -56.5t69.5 -48.5t83 -20q56 0 99.5 20.5t66.5 49.5t38 58.5t19 50.5l4 20h47q0 -7 -1 -20t-8 -50t-18.5 -70.5t-36 -74.5t-56.5 -70.5t-83 -50t-114 -20.5q-57 0 -105 20 t-80.5 48t-63.5 56t-69.5 48t-82.5 20q-56 0 -100 -20.5t-67 -50t-38 -58.5t-19 -49l-4 -21h-49z" />
<glyph unicode="&#xa1;" horiz-adv-x="620" d="M154 1356q0 56 39 94.5t94 38.5t94 -38.5t39 -94.5q0 -54 -39 -93.5t-94 -39.5t-94 39.5t-39 93.5zM168 100l76 944h86l76 -944q0 -53 -34 -89t-85 -36t-85 36t-34 89z" />
<glyph unicode="&#xa2;" horiz-adv-x="1126" d="M102 561q0 103 37.5 191t99.5 147t138 95t158 46v281h102v-279q166 -14 266 -108q68 -65 68 -129q0 -41 -27.5 -68.5t-64.5 -27.5q-34 0 -63 26.5t-42 81.5q-13 56 -45 88t-92 41v-774q197 12 315 193l41 -60q-43 -86 -144 -153t-212 -74v-277h-102v281 q-194 21 -313.5 145.5t-119.5 333.5zM317 561q0 -150 58.5 -249.5t159.5 -129.5v762q-73 -16 -123.5 -74.5t-72.5 -137t-22 -171.5z" />
<glyph unicode="&#xa3;" horiz-adv-x="1126" d="M100 0v20q172 146 257 275.5t85 288.5q0 62 -30 127h-230v94h174q-10 14 -38.5 52t-41.5 56.5t-34.5 55.5t-32 65t-19 68t-8.5 80q0 147 106 227t275 80q241 0 344 -172q17 -28 17 -57q0 -40 -31.5 -66.5t-71.5 -26.5q-31 0 -55.5 18.5t-34.5 55.5q-26 87 -64 120.5 t-104 33.5q-70 0 -110.5 -54.5t-40.5 -150.5q0 -75 25 -139.5t67.5 -135t58.5 -110.5h219v-94h-194q4 -32 4 -52q0 -147 -65 -282t-158 -219h381l200 262h15l-68 -420h-797z" />
<glyph unicode="&#xa4;" horiz-adv-x="1126" d="M137 754l90 90l97 -127q103 80 239 80q139 0 236 -78l98 125l90 -90l-125 -99q78 -105 78 -237q0 -133 -78 -238l125 -96l-90 -90l-98 123q-99 -76 -236 -76q-135 0 -237 76l-97 -123l-90 90l123 96q-76 102 -76 238q0 135 76 237zM311 418q0 -121 69 -197t183 -76 t183 76t69 197t-69 197.5t-183 76.5t-183 -76.5t-69 -197.5z" />
<glyph unicode="&#xa5;" horiz-adv-x="1126" d="M-41 1450v14h541v-14l-140 -102l299 -474l29 -122l27 116l276 480l-139 102v14h420v-14l-139 -102l-371 -615h289v-102h-289v-113h289v-102h-289v-299l139 -103v-14h-493v14l139 103v299h-289v102h289v113h-289v102h229l-389 615z" />
<glyph unicode="&#xa6;" horiz-adv-x="409" d="M154 350h102v-901h-102v901zM154 563v901h102v-901h-102z" />
<glyph unicode="&#xa7;" horiz-adv-x="1126" d="M188 -322q0 41 24 67t58 26q33 0 63 -25.5t44 -73.5q26 -87 70 -120t126 -33q76 0 122 52t46 161q0 68 -30 125.5t-78 99t-106 81t-116 81t-106 88t-78 113t-30 145.5q0 169 192 323q-92 73 -144 158.5t-52 208.5q0 84 31 150t82.5 105t114 59t130.5 20q270 0 367 -178 q18 -43 18 -76q0 -41 -24 -66.5t-58 -25.5q-33 0 -62.5 25t-43.5 73q-26 87 -70.5 120.5t-126.5 33.5q-76 0 -122 -52t-46 -161q0 -54 18.5 -100.5t50 -82.5t72.5 -69t86.5 -63.5t90.5 -61.5t86 -67.5t72.5 -77t50 -95t18.5 -116.5q0 -169 -195 -326q94 -70 146.5 -156 t52.5 -209q0 -84 -31 -150t-83 -104.5t-114.5 -58.5t-130.5 -20q-269 0 -366 178q-19 46 -19 75zM381 512q0 -33 8.5 -63.5t18.5 -53t34.5 -49.5t39 -42t51 -41.5t51 -36.5t57.5 -38q102 109 102 213q0 32 -8.5 62.5t-19 53t-34.5 49t-39.5 42.5t-50.5 41.5t-51.5 36.5 t-56.5 37q-102 -102 -102 -211z" />
<glyph unicode="&#xa8;" horiz-adv-x="675" d="M49 1350q0 47 33.5 80.5t79.5 33.5q47 0 80.5 -33.5t33.5 -80.5t-33.5 -81t-80.5 -34q-46 0 -79.5 34t-33.5 81zM399 1350q0 47 33.5 80.5t79.5 33.5q47 0 81 -33.5t34 -80.5t-34 -81t-81 -34q-46 0 -79.5 34t-33.5 81z" />
<glyph unicode="&#xa9;" horiz-adv-x="1679" d="M82 731q0 155 60 295.5t161.5 241.5t242 161t294.5 60t294 -60t241.5 -161t161.5 -241.5t60 -295.5q0 -154 -60 -294t-161.5 -241t-241.5 -161t-294 -60t-294.5 60t-242 161t-161.5 241t-60 294zM219 731q0 -174 81 -320.5t224 -232.5t316 -86t315.5 86t223.5 232.5 t81 320.5q0 175 -81 322t-223.5 233t-315.5 86t-316 -86t-224 -233t-81 -322zM371 731q0 129 69.5 237t184.5 169t247 61q143 0 263 -57v-234h-21q-25 87 -85 144t-163 57q-134 0 -210 -102t-76 -275q0 -174 91 -275.5t218 -101.5q210 0 317 205l39 -35 q-37 -119 -138 -189.5t-218 -70.5q-232 0 -375 129t-143 338z" />
<glyph unicode="&#xaa;" horiz-adv-x="630" d="M10 705q0 46 24.5 83.5t63.5 62t94.5 42t109 27t114.5 14.5v51q0 76 -28 109.5t-93 33.5q-59 0 -93 -21t-48 -79q-14 -61 -70 -61q-25 0 -42 15t-17 42q0 30 26 66q82 104 244 104q72 0 122.5 -17t77.5 -49t38.5 -70t11.5 -87v-365l73 -45v-10h-202v67q-29 -39 -80 -61 t-113 -22q-213 0 -213 170zM143 713q0 -54 31.5 -84.5t79.5 -30.5q72 0 117 45.5t45 112.5v121q-70 -7 -114.5 -16t-83.5 -26.5t-57 -47.5t-18 -74z" />
<glyph unicode="&#xab;" horiz-adv-x="1030" d="M82 502v37l498 501v-172l-338 -348l338 -348v-172zM440 502v37l498 501v-172l-338 -348l338 -348v-172z" />
<glyph unicode="&#xac;" horiz-adv-x="1044" d="M184 494v102h676v-373h-102v256l-15 15h-559z" />
<glyph unicode="&#xad;" horiz-adv-x="864" d="M70 596v102h712v-102h-712z" />
<glyph unicode="&#xae;" horiz-adv-x="1679" d="M82 731q0 155 60 295.5t161.5 241.5t242 161t294.5 60t294 -60t241.5 -161t161.5 -241.5t60 -295.5q0 -154 -60 -294t-161.5 -241t-241.5 -161t-294 -60t-294.5 60t-242 161t-161.5 241t-60 294zM219 731q0 -174 81 -320.5t224 -232.5t316 -86q235 0 411 158l-57 24 l-123 103l-235 295h-91l-14 -15v-280l88 -88v-15h-364v15l88 88v713l-88 88v14h473q69 0 121.5 -10.5t100 -37.5t73.5 -80.5t26 -131.5q0 -57 -22.5 -103t-62 -75t-83 -47t-94.5 -27l98 -16l205 -377q81 88 125.5 202.5t44.5 241.5q0 175 -81 322t-223.5 233t-315.5 86 t-316 -86t-224 -233t-81 -322zM731 758l14 -15h117q94 0 146.5 49.5t52.5 139.5q0 54 -17 92.5t-46.5 58.5t-62.5 28.5t-73 8.5h-117l-14 -14v-348z" />
<glyph unicode="&#xaf;" horiz-adv-x="675" d="M84 1276v106h506v-106h-506z" />
<glyph unicode="&#xb0;" horiz-adv-x="675" d="M113 1264q0 94 65.5 159.5t159.5 65.5t159.5 -65.5t65.5 -159.5t-65.5 -160t-159.5 -66t-159.5 66t-65.5 160zM217 1264q0 -59 31 -97.5t90 -38.5t90 38.5t31 97.5t-31 97t-90 38t-90 -38t-31 -97z" />
<glyph unicode="&#xb1;" horiz-adv-x="1044" d="M74 662v102h395v395h102v-395h398v-102h-398v-396h-102v396h-395zM82 0v102h876v-102h-876z" />
<glyph unicode="&#xb2;" horiz-adv-x="696" d="M72 836v20q372 343 372 561q0 146 -127 146q-57 0 -108 -50t-82 -120l-49 18q13 40 35 77.5t55 72.5t81 56t103 21q108 0 175 -51t67 -155q0 -119 -86 -237.5t-252 -252.5h240l108 125h14l-38 -231h-508z" />
<glyph unicode="&#xb3;" horiz-adv-x="696" d="M55 981q0 28 19 43.5t45 15.5q22 0 38.5 -13.5t22.5 -39.5q24 -100 135 -100q65 0 103.5 47.5t38.5 120.5q0 74 -52.5 125.5t-130.5 60.5v35q64 0 109 52t45 122q0 60 -26.5 92.5t-75.5 32.5q-51 0 -94 -38t-74 -103l-49 30q31 75 91 124.5t142 49.5q91 0 151 -48 t60 -140q0 -70 -40 -118.5t-93 -59.5q176 -47 176 -197q0 -116 -80 -183t-205 -67q-91 0 -157.5 33t-90.5 86q-8 16 -8 37z" />
<glyph unicode="&#xb4;" horiz-adv-x="675" d="M147 1073l183 277q38 53 100 53q43 0 71.5 -29.5t28.5 -68.5q0 -52 -57 -84l-278 -148h-48z" />
<glyph unicode="&#xb5;" horiz-adv-x="1126" d="M47 862v15l297 84v-715q0 -82 36 -116t105 -34q36 0 81 19t84.5 46t74 54.5t54.5 46.5l20 19v528l-109 53v15l297 84v-881l109 -66v-14h-297v176q-10 -8 -27.5 -21.5t-69 -48.5t-99 -61.5t-107 -48t-103.5 -21.5q-14 0 -49 5v-531h-188v1360z" />
<glyph unicode="&#xb6;" horiz-adv-x="956" d="M-20 1010q0 188 132 321t320 133h473v-2015h-14l-133 123v1776l-15 14h-149l-14 -14v-1899h-15l-133 123v985q-124 0 -228 60.5t-164 165t-60 227.5z" />
<glyph unicode="&#xb7;" horiz-adv-x="487" d="M96 627q0 54 39 93.5t94 39.5q54 0 93.5 -39.5t39.5 -93.5q0 -55 -39.5 -94t-93.5 -39q-55 0 -94 39t-39 94z" />
<glyph unicode="&#xb8;" horiz-adv-x="675" d="M152 -326l14 27q71 -25 123 -25q114 0 114 95q0 36 -20 54.5t-55 18.5q-83 0 -138 -55h-18l82 281h74l-72 -191q52 37 135 37q135 0 135 -125q0 -79 -57 -117.5t-150 -38.5q-100 0 -167 39z" />
<glyph unicode="&#xb9;" horiz-adv-x="696" d="M160 1524v20l282 109v-729l95 -74v-14h-330v14l96 74v514q0 50 -17.5 73t-58.5 23q-22 0 -67 -10z" />
<glyph unicode="&#xba;" horiz-adv-x="704" d="M12 862q0 140 98 236t242 96t242 -96t98 -236q0 -137 -98 -232t-242 -95t-242 95t-98 232zM172 862q0 -119 43.5 -186.5t136.5 -67.5q92 0 136 68t44 186q0 120 -44 188t-136 68q-93 0 -136.5 -68t-43.5 -188z" />
<glyph unicode="&#xbb;" horiz-adv-x="1030" d="M92 0v172l338 348l-338 348v172l498 -501v-37zM451 0v172l337 348l-337 348v172l497 -501v-37z" />
<glyph unicode="&#xbc;" horiz-adv-x="1351" d="M51 1284v21l283 108v-729l94 -74v-14h-330v14l97 74v514q0 50 -17.5 73t-58.5 23q-23 0 -68 -10zM213 47l823 1417l82 -47l-823 -1417zM614 233v27l406 557h37v-516h119v-68h-119v-145l94 -74v-14h-330v14l97 74v145h-304zM725 301h193v262z" />
<glyph unicode="&#xbd;" horiz-adv-x="1351" d="M51 1284v21l283 108v-729l94 -74v-14h-330v14l97 74v514q0 50 -17.5 73t-58.5 23q-23 0 -68 -10zM213 47l823 1417l82 -47l-823 -1417zM758 0v20q41 38 79 75.5t95 103t97.5 124t70.5 129.5t30 130q0 145 -126 145q-57 0 -108.5 -50t-82.5 -120l-49 18q13 40 35 77.5 t55 72.5t81 56.5t103 21.5q108 0 175 -51.5t67 -155.5q0 -119 -86 -237.5t-252 -252.5h240l108 125h15l-39 -231h-508z" />
<glyph unicode="&#xbe;" horiz-adv-x="1351" d="M51 750q0 28 19 43.5t45 15.5q22 0 38.5 -13.5t22.5 -39.5q24 -101 135 -101q65 0 103.5 47.5t38.5 120.5q0 74 -53 126t-130 61v34q64 0 109 52.5t45 122.5q0 60 -26.5 92t-75.5 32q-51 0 -94 -38t-74 -103l-50 31q31 74 91.5 124t142.5 50q91 0 151 -48t60 -140 q0 -70 -40 -119t-93 -60q176 -47 176 -196q0 -116 -80 -183t-205 -67q-91 0 -157.5 33t-90.5 86q-8 16 -8 37zM301 47l823 1417l82 -47l-823 -1417zM702 233v27l406 557h37v-516h119v-68h-119v-145l94 -74v-14h-330v14l97 74v145h-304zM813 301h193v262z" />
<glyph unicode="&#xbf;" horiz-adv-x="1142" d="M82 315q0 108 48.5 195.5t184.5 191.5q59 46 95 86t53.5 85.5t23 87t5.5 106.5h83v-133q0 -72 -21 -130t-52 -94t-68 -76.5t-68 -77.5t-52 -97.5t-21 -134.5q0 -117 65.5 -185.5t171.5 -68.5q64 0 108.5 18t74.5 57t48 84t36 115q10 40 39.5 61t66.5 21q43 0 75 -26.5 t32 -73.5q0 -34 -25 -86q-134 -265 -455 -265q-200 0 -324 91t-124 249zM401 1356q0 55 39 94t95 39q55 0 94 -38.5t39 -94.5q0 -54 -39 -93.5t-94 -39.5t-94.5 39.5t-39.5 93.5z" />
<glyph unicode="&#xc0;" horiz-adv-x="1503" d="M20 0v14l140 103l575 1394h37l574 -1394l137 -103v-14h-496v14l139 103l-147 356h-559l-148 -356l140 -103v-14h-392zM463 575h475l-217 523l-19 84l-12 -54zM528 1851q0 39 29 69t72 30q61 0 100 -54l182 -276h-47l-278 147q-58 33 -58 84z" />
<glyph unicode="&#xc1;" horiz-adv-x="1503" d="M20 0v14l140 103l575 1394h37l574 -1394l137 -103v-14h-496v14l139 103l-147 356h-559l-148 -356l140 -103v-14h-392zM463 575h475l-217 523l-19 84l-12 -54zM575 1620l183 276q39 54 100 54q43 0 71.5 -29.5t28.5 -69.5q0 -52 -57 -84l-278 -147h-48z" />
<glyph unicode="&#xc2;" horiz-adv-x="1503" d="M20 0v14l140 103l575 1394h37l574 -1394l137 -103v-14h-496v14l139 103l-147 356h-559l-148 -356l140 -103v-14h-392zM463 575h475l-217 523l-19 84l-12 -54zM481 1599l234 330h67l234 -330h-47l-221 154l-220 -154h-47z" />
<glyph unicode="&#xc3;" horiz-adv-x="1503" d="M20 0v14l140 103l575 1394h37l574 -1394l137 -103v-14h-496v14l139 103l-147 356h-559l-148 -356l140 -103v-14h-392zM350 1667l5.5 27.5t22 61t43.5 77t74.5 61t110.5 27.5t107.5 -20.5t70.5 -45t60 -45t78 -20.5q39 0 73.5 13t55 32t35 37.5t20.5 31.5l6 13h35 l-5.5 -27.5t-22 -61t-43.5 -77t-74.5 -61t-110.5 -27.5t-107.5 20.5t-70.5 45t-60 45t-78 20.5q-39 0 -73.5 -13t-55 -32t-35 -37.5t-20.5 -31.5l-6 -13h-35zM463 575h475l-217 523l-19 84l-12 -54z" />
<glyph unicode="&#xc4;" horiz-adv-x="1503" d="M20 0v14l140 103l575 1394h37l574 -1394l137 -103v-14h-496v14l139 103l-147 356h-559l-148 -356l140 -103v-14h-392zM463 575h475l-217 523l-19 84l-12 -54zM465 1753q0 47 33.5 81t79.5 34q47 0 80.5 -34t33.5 -81t-33.5 -81t-80.5 -34q-46 0 -79.5 34t-33.5 81z M815 1753q0 47 33.5 81t79.5 34q47 0 80.5 -34t33.5 -81t-33.5 -81t-80.5 -34q-46 0 -79.5 34t-33.5 81z" />
<glyph unicode="&#xc5;" horiz-adv-x="1503" d="M20 0v14l140 103l575 1394h37l574 -1394l137 -103v-14h-496v14l139 103l-147 356h-559l-148 -356l140 -103v-14h-392zM463 575h475l-217 523l-19 84l-12 -54zM555 1800q0 80 55.5 135.5t134.5 55.5t135 -55.5t56 -135.5q0 -79 -55.5 -134.5t-135.5 -55.5q-79 0 -134.5 55 t-55.5 135zM655 1800q0 -38 26 -64t64 -26t64.5 26t26.5 64t-26.5 64t-64.5 26t-64 -26t-26 -64z" />
<glyph unicode="&#xc6;" horiz-adv-x="2105" d="M20 0l3 14l163 103l811 1257l-102 76v14h1040l37 -301h-14l-143 199h-551l-15 -14v-500l15 -14h495l70 118h12v-338h-12l-70 117h-495l-15 -14v-600l15 -15h569l199 228h14l-51 -330h-1100v14l139 103v342l-14 14h-490l-231 -356l115 -103l-2 -14h-392zM596 575h424 l14 15v663z" />
<glyph unicode="&#xc7;" horiz-adv-x="1447" d="M59 733q0 211 93.5 383.5t262 272.5t378.5 100q93 0 203.5 -22t207.5 -68v-332h-33q-90 319 -387 319q-154 0 -264 -87t-162.5 -232t-52.5 -334q0 -293 144 -474t370 -181q172 0 298.5 81t215.5 257l58 -39q-79 -198 -225 -300t-347 -102q-47 0 -108 7l-37 -103 q52 37 135 37q135 0 135 -125q0 -79 -57 -117.5t-150 -38.5q-101 0 -168 39l15 27q71 -25 123 -25q114 0 114 95q0 36 -20.5 54.5t-55.5 18.5q-82 0 -137 -55h-18l57 201q-281 47 -434.5 244t-153.5 499z" />
<glyph unicode="&#xc8;" horiz-adv-x="1261" d="M51 0v14l139 103v1231l-139 102v14h1041l36 -301h-14l-143 199h-551l-14 -14v-500l14 -14h495l70 118h12v-338h-12l-70 117h-495l-14 -14v-600l14 -15h569l199 228h14l-51 -330h-1100zM354 1851q0 39 29 69t72 30q61 0 100 -54l182 -276h-47l-278 147q-58 33 -58 84z" />
<glyph unicode="&#xc9;" horiz-adv-x="1261" d="M51 0v14l139 103v1231l-139 102v14h1041l36 -301h-14l-143 199h-551l-14 -14v-500l14 -14h495l70 118h12v-338h-12l-70 117h-495l-14 -14v-600l14 -15h569l199 228h14l-51 -330h-1100zM422 1620l182 276q39 54 101 54q43 0 71.5 -29.5t28.5 -69.5q0 -52 -57 -84 l-279 -147h-47z" />
<glyph unicode="&#xca;" horiz-adv-x="1261" d="M51 0v14l139 103v1231l-139 102v14h1041l36 -301h-14l-143 199h-551l-14 -14v-500l14 -14h495l70 118h12v-338h-12l-70 117h-495l-14 -14v-600l14 -15h569l199 228h14l-51 -330h-1100zM324 1599l233 330h68l233 -330h-47l-221 154l-219 -154h-47z" />
<glyph unicode="&#xcb;" horiz-adv-x="1261" d="M51 0v14l139 103v1231l-139 102v14h1041l36 -301h-14l-143 199h-551l-14 -14v-500l14 -14h495l70 118h12v-338h-12l-70 117h-495l-14 -14v-600l14 -15h569l199 228h14l-51 -330h-1100zM301 1753q0 47 33.5 81t79.5 34q47 0 80.5 -34t33.5 -81t-33.5 -81t-80.5 -34 q-46 0 -79.5 34t-33.5 81zM651 1753q0 47 33.5 81t79.5 34q47 0 81 -34t34 -81t-34 -81t-81 -34q-46 0 -79.5 34t-33.5 81z" />
<glyph unicode="&#xcc;" horiz-adv-x="616" d="M61 0v14l140 103v1231l-140 102v14h494v-14l-139 -102v-1231l139 -103v-14h-494zM135 1851q0 39 29 69t72 30q61 0 100 -54l182 -276h-47l-278 147q-58 33 -58 84z" />
<glyph unicode="&#xcd;" horiz-adv-x="616" d="M61 0v14l140 103v1231l-140 102v14h494v-14l-139 -102v-1231l139 -103v-14h-494zM100 1620l183 276q39 54 100 54q43 0 71.5 -29.5t28.5 -69.5q0 -52 -57 -84l-279 -147h-47z" />
<glyph unicode="&#xce;" horiz-adv-x="616" d="M41 1599l233 330h68l233 -330h-47l-221 154l-219 -154h-47zM61 0v14l140 103v1231l-140 102v14h494v-14l-139 -102v-1231l139 -103v-14h-494z" />
<glyph unicode="&#xcf;" horiz-adv-x="616" d="M20 1753q0 47 33.5 81t79.5 34q47 0 81 -34t34 -81t-34 -81t-81 -34q-46 0 -79.5 34t-33.5 81zM61 0v14l140 103v1231l-140 102v14h494v-14l-139 -102v-1231l139 -103v-14h-494zM371 1753q0 47 33 81t79 34q47 0 81 -34t34 -81t-34 -81t-81 -34q-46 0 -79 34t-33 81z" />
<glyph unicode="&#xd0;" horiz-adv-x="1484" d="M55 0v14l140 103v551l-15 14h-125v102h125l15 15v549l-140 102v14h650q217 0 378.5 -94.5t245.5 -260t84 -378.5q0 -212 -84 -377t-245.5 -259.5t-378.5 -94.5h-650zM410 117l14 -15h250q257 0 385.5 168.5t128.5 460.5q0 143 -31 258t-93 199t-161 129t-229 45h-250 l-14 -14v-549l14 -15h125v-102h-125l-14 -14v-551z" />
<glyph unicode="&#xd1;" horiz-adv-x="1495" d="M51 0v14l139 103v1231l-139 102v14h303l822 -979l24 -96v959l-139 102v14h381v-14l-139 -102v-1348l-988 1176l-22 94v-1153l137 -103v-14h-379zM352 1667l5.5 27.5t22 61t43.5 77t74.5 61t110.5 27.5t107.5 -20.5t70.5 -45t60 -45t78 -20.5q39 0 73.5 13t55 32t35 37.5 t20.5 31.5l6 13h35l-5.5 -27.5t-22 -61t-43.5 -77t-74.5 -61t-110.5 -27.5q-50 0 -89.5 13.5t-64 32.5t-46.5 38.5t-51 33t-64 13.5q-39 0 -73.5 -13t-55 -32t-35.5 -37.5t-21 -31.5l-6 -13h-35z" />
<glyph unicode="&#xd2;" horiz-adv-x="1572" d="M68 733q0 212 89 384t253.5 272t375.5 100q210 0 375 -100t254.5 -272t89.5 -384t-89.5 -384.5t-254.5 -273t-375 -100.5t-375 100.5t-254 273t-89 384.5zM313 733q0 -143 29.5 -261.5t87 -207t148.5 -137.5t208 -49q154 0 262.5 86t160 231.5t51.5 337.5 q0 194 -51.5 339t-159.5 229.5t-263 84.5q-117 0 -208 -48t-148.5 -135.5t-87 -206.5t-29.5 -263zM612 1851q0 39 29 69t72 30q61 0 100 -54l182 -276h-47l-278 147q-58 33 -58 84z" />
<glyph unicode="&#xd3;" horiz-adv-x="1572" d="M68 733q0 212 89 384t253.5 272t375.5 100q210 0 375 -100t254.5 -272t89.5 -384t-89.5 -384.5t-254.5 -273t-375 -100.5t-375 100.5t-254 273t-89 384.5zM313 733q0 -143 29.5 -261.5t87 -207t148.5 -137.5t208 -49q154 0 262.5 86t160 231.5t51.5 337.5 q0 194 -51.5 339t-159.5 229.5t-263 84.5q-117 0 -208 -48t-148.5 -135.5t-87 -206.5t-29.5 -263zM578 1620l182 276q39 54 100 54q43 0 72 -30t29 -69q0 -51 -58 -84l-278 -147h-47z" />
<glyph unicode="&#xd4;" horiz-adv-x="1572" d="M68 733q0 212 89 384t253.5 272t375.5 100q210 0 375 -100t254.5 -272t89.5 -384t-89.5 -384.5t-254.5 -273t-375 -100.5t-375 100.5t-254 273t-89 384.5zM313 733q0 -143 29.5 -261.5t87 -207t148.5 -137.5t208 -49q154 0 262.5 86t160 231.5t51.5 337.5 q0 194 -51.5 339t-159.5 229.5t-263 84.5q-117 0 -208 -48t-148.5 -135.5t-87 -206.5t-29.5 -263zM520 1599l234 330h67l234 -330h-47l-222 154l-219 -154h-47z" />
<glyph unicode="&#xd5;" horiz-adv-x="1572" d="M68 733q0 212 89 384t253.5 272t375.5 100q210 0 375 -100t254.5 -272t89.5 -384t-89.5 -384.5t-254.5 -273t-375 -100.5t-375 100.5t-254 273t-89 384.5zM313 733q0 -143 29.5 -261.5t87 -207t148.5 -137.5t208 -49q154 0 262.5 86t160 231.5t51.5 337.5 q0 194 -51.5 339t-159.5 229.5t-263 84.5q-117 0 -208 -48t-148.5 -135.5t-87 -206.5t-29.5 -263zM387 1667l5.5 27.5t22 61t43.5 77t74.5 61t110.5 27.5q50 0 89.5 -13.5t64 -32.5t46.5 -38.5t51 -33t64 -13.5q39 0 73.5 13t55 32t35.5 37.5t21 31.5l6 13h35l-5.5 -27.5 t-22 -61t-43.5 -77t-74.5 -61t-110.5 -27.5t-107.5 20.5t-70.5 45t-60 45t-78 20.5q-39 0 -73.5 -13t-55 -32t-35 -37.5t-20.5 -31.5l-6 -13h-35z" />
<glyph unicode="&#xd6;" horiz-adv-x="1572" d="M68 733q0 212 89 384t253.5 272t375.5 100q210 0 375 -100t254.5 -272t89.5 -384t-89.5 -384.5t-254.5 -273t-375 -100.5t-375 100.5t-254 273t-89 384.5zM313 733q0 -143 29.5 -261.5t87 -207t148.5 -137.5t208 -49q154 0 262.5 86t160 231.5t51.5 337.5 q0 194 -51.5 339t-159.5 229.5t-263 84.5q-117 0 -208 -48t-148.5 -135.5t-87 -206.5t-29.5 -263zM498 1753q0 47 33 81t79 34q47 0 81 -34t34 -81t-34 -81t-81 -34q-46 0 -79 34t-33 81zM848 1753q0 47 33.5 81t79.5 34q47 0 80.5 -34t33.5 -81t-33.5 -81t-80.5 -34 q-46 0 -79.5 34t-33.5 81z" />
<glyph unicode="&#xd7;" horiz-adv-x="1044" d="M170 332l281 278l-281 279l74 74l278 -281l279 281l73 -74l-280 -279l283 -280l-74 -74l-281 283l-278 -281z" />
<glyph unicode="&#xd8;" horiz-adv-x="1572" d="M39 61l186 187q-151 206 -151 485q0 158 52.5 297.5t145.5 240.5t228 159.5t293 58.5q288 0 487 -189l180 181l72 -74l-182 -182q161 -207 161 -492q0 -158 -52.5 -297.5t-145.5 -241t-228 -160.5t-292 -59q-303 0 -498 195l-182 -182zM319 733q0 -194 52 -340l790 789 q-125 204 -368 204q-155 0 -263.5 -84.5t-159.5 -229.5t-51 -339zM418 293q124 -215 375 -215q154 0 262.5 86t159.5 231.5t51 337.5q0 204 -58 350z" />
<glyph unicode="&#xd9;" horiz-adv-x="1536" d="M51 1450v14h494v-14l-139 -102v-807q0 -79 8.5 -141t35.5 -127t72 -108.5t123 -71t184 -27.5q108 0 184 19.5t123.5 54t73.5 94t35.5 127.5t9.5 167v820l-139 102v14h381v-14l-139 -102v-895q0 -83 -13 -150.5t-48.5 -132.5t-93.5 -109t-153 -71t-221 -27 q-180 0 -303 34.5t-197 108t-106.5 179t-32.5 256.5v807zM651 1851q0 39 29 69t72 30q61 0 100 -54l182 -276h-47l-278 147q-58 33 -58 84z" />
<glyph unicode="&#xda;" horiz-adv-x="1536" d="M51 1450v14h494v-14l-139 -102v-807q0 -79 8.5 -141t35.5 -127t72 -108.5t123 -71t184 -27.5q108 0 184 19.5t123.5 54t73.5 94t35.5 127.5t9.5 167v820l-139 102v14h381v-14l-139 -102v-895q0 -83 -13 -150.5t-48.5 -132.5t-93.5 -109t-153 -71t-221 -27 q-180 0 -303 34.5t-197 108t-106.5 179t-32.5 256.5v807zM616 1620l183 276q39 54 100 54q43 0 71.5 -29.5t28.5 -69.5q0 -52 -57 -84l-278 -147h-48z" />
<glyph unicode="&#xdb;" horiz-adv-x="1536" d="M51 1450v14h494v-14l-139 -102v-807q0 -79 8.5 -141t35.5 -127t72 -108.5t123 -71t184 -27.5q108 0 184 19.5t123.5 54t73.5 94t35.5 127.5t9.5 167v820l-139 102v14h381v-14l-139 -102v-895q0 -83 -13 -150.5t-48.5 -132.5t-93.5 -109t-153 -71t-221 -27 q-180 0 -303 34.5t-197 108t-106.5 179t-32.5 256.5v807zM559 1599l234 330h67l234 -330h-47l-222 154l-219 -154h-47z" />
<glyph unicode="&#xdc;" horiz-adv-x="1536" d="M51 1450v14h494v-14l-139 -102v-807q0 -79 8.5 -141t35.5 -127t72 -108.5t123 -71t184 -27.5q108 0 184 19.5t123.5 54t73.5 94t35.5 127.5t9.5 167v820l-139 102v14h381v-14l-139 -102v-895q0 -83 -13 -150.5t-48.5 -132.5t-93.5 -109t-153 -71t-221 -27 q-180 0 -303 34.5t-197 108t-106.5 179t-32.5 256.5v807zM537 1753q0 47 33 81t79 34q47 0 81 -34t34 -81t-34 -81t-81 -34q-46 0 -79 34t-33 81zM887 1753q0 47 33 81t79 34q47 0 81 -34t34 -81t-34 -81t-81 -34q-46 0 -79 34t-33 81z" />
<glyph unicode="&#xdd;" horiz-adv-x="1398" d="M43 1450v14h541v-14l-140 -102l299 -463l29 -123l27 117l297 469l-140 102v14h402v-14l-139 -102l-373 -588v-643l139 -103v-14h-493v14l139 103v532l-449 699zM561 1620l182 276q39 54 101 54q43 0 71.5 -29.5t28.5 -69.5q0 -52 -57 -84l-279 -147h-47z" />
<glyph unicode="&#xde;" horiz-adv-x="1204" d="M55 0v14l140 103v1231l-140 102v14h494v-14l-139 -102v-158l16 -14h199q77 0 146 -9.5t145.5 -38.5t131 -76t90.5 -129t36 -190q0 -78 -18.5 -143t-50 -110t-76 -79.5t-92 -55.5t-104 -34t-106 -17.5t-102.5 -4.5h-199l-16 -15v-157l139 -103v-14h-494zM410 408l16 -17 h147q75 0 130 8t105.5 30t81.5 59.5t49.5 99t18.5 145.5t-18.5 145t-49.5 98.5t-81.5 59.5t-105.5 29.5t-130 7.5h-147l-16 -16v-649z" />
<glyph unicode="&#xdf;" horiz-adv-x="1163" d="M25 0v14l139 66v729l-14 14h-117v95h117l14 14v135q0 202 104 312t291 110q177 0 272 -77t95 -208q0 -56 -18 -105t-45 -81.5t-59 -64t-59 -56t-45 -55t-18 -62.5q0 -36 23.5 -66.5t61.5 -53.5t84 -46t92 -52.5t84 -65t61.5 -90t23.5 -121.5q0 -138 -80.5 -224 t-240.5 -86q-81 0 -164 41t-127 103v270h22q40 -167 104.5 -243t155.5 -76q152 0 152 186q0 47 -20.5 85.5t-54 66t-73.5 52.5t-79.5 52t-73 58t-54 75.5t-20.5 99.5q0 62 20 114t48.5 88t56.5 70t48 77.5t20 93.5q0 207 -193 207q-99 0 -153 -68t-54 -205v-1042l140 -66 v-14h-467z" />
<glyph unicode="&#xe0;" horiz-adv-x="974" d="M66 225q0 49 18.5 91t50.5 73.5t78 57.5t97 44.5t112 32.5t118.5 22.5t121.5 14.5v76q0 110 -41.5 160.5t-137.5 50.5q-85 0 -136 -32t-71 -116q-11 -46 -39.5 -69t-62.5 -23q-36 0 -62 23t-26 61q0 47 41 99q63 81 159 116t197 35q85 0 149.5 -17t105.5 -46t66.5 -71.5 t35.5 -89t10 -102.5v-536l108 -66v-14h-296v100q-42 -60 -117 -92.5t-166 -32.5q-65 0 -118 12t-98.5 39.5t-71 78t-25.5 120.5zM262 238q0 -79 45.5 -123.5t114.5 -44.5q107 0 173.5 66t66.5 163v178q-81 -8 -137 -17t-109 -26.5t-84.5 -42t-50.5 -63t-19 -90.5zM272 1264 q0 39 29 68.5t72 29.5q62 0 100 -53l182 -277h-47l-278 148q-58 33 -58 84z" />
<glyph unicode="&#xe1;" horiz-adv-x="974" d="M66 225q0 49 18.5 91t50.5 73.5t78 57.5t97 44.5t112 32.5t118.5 22.5t121.5 14.5v76q0 110 -41.5 160.5t-137.5 50.5q-85 0 -136 -32t-71 -116q-11 -46 -39.5 -69t-62.5 -23q-36 0 -62 23t-26 61q0 47 41 99q63 81 159 116t197 35q85 0 149.5 -17t105.5 -46t66.5 -71.5 t35.5 -89t10 -102.5v-536l108 -66v-14h-296v100q-42 -60 -117 -92.5t-166 -32.5q-65 0 -118 12t-98.5 39.5t-71 78t-25.5 120.5zM262 238q0 -79 45.5 -123.5t114.5 -44.5q107 0 173.5 66t66.5 163v178q-81 -8 -137 -17t-109 -26.5t-84.5 -42t-50.5 -63t-19 -90.5zM279 1032 l182 277q38 53 100 53q43 0 72 -29.5t29 -68.5q0 -51 -58 -84l-278 -148h-47z" />
<glyph unicode="&#xe2;" horiz-adv-x="974" d="M66 225q0 49 18.5 91t50.5 73.5t78 57.5t97 44.5t112 32.5t118.5 22.5t121.5 14.5v76q0 110 -41.5 160.5t-137.5 50.5q-85 0 -136 -32t-71 -116q-11 -46 -39.5 -69t-62.5 -23q-36 0 -62 23t-26 61q0 47 41 99q63 81 159 116t197 35q85 0 149.5 -17t105.5 -46t66.5 -71.5 t35.5 -89t10 -102.5v-536l108 -66v-14h-296v100q-42 -60 -117 -92.5t-166 -32.5q-65 0 -118 12t-98.5 39.5t-71 78t-25.5 120.5zM217 1053l234 329h67l234 -329h-47l-222 153l-219 -153h-47zM262 238q0 -79 45.5 -123.5t114.5 -44.5q107 0 173.5 66t66.5 163v178 q-81 -8 -137 -17t-109 -26.5t-84.5 -42t-50.5 -63t-19 -90.5z" />
<glyph unicode="&#xe3;" horiz-adv-x="974" d="M66 225q0 49 18.5 91t50.5 73.5t78 57.5t97 44.5t112 32.5t118.5 22.5t121.5 14.5v76q0 110 -41.5 160.5t-137.5 50.5q-85 0 -136 -32t-71 -116q-11 -46 -39.5 -69t-62.5 -23q-36 0 -62 23t-26 61q0 47 41 99q63 81 159 116t197 35q85 0 149.5 -17t105.5 -46t66.5 -71.5 t35.5 -89t10 -102.5v-536l108 -66v-14h-296v100q-42 -60 -117 -92.5t-166 -32.5q-65 0 -118 12t-98.5 39.5t-71 78t-25.5 120.5zM88 1100l5.5 27.5t22 61t43.5 77t74.5 61t110.5 27.5q50 0 89.5 -13.5t64 -33t46.5 -38.5t51 -32.5t64 -13.5q39 0 73.5 13t55 31.5t35.5 37.5 t21 32l6 13h35l-5.5 -27.5t-22 -61t-43.5 -77t-74.5 -61t-110.5 -27.5t-107.5 20.5t-70.5 45t-60 45t-78 20.5q-39 0 -73.5 -13t-55 -31.5t-35 -37.5t-20.5 -32l-6 -13h-35zM262 238q0 -79 45.5 -123.5t114.5 -44.5q107 0 173.5 66t66.5 163v178q-81 -8 -137 -17t-109 -26.5 t-84.5 -42t-50.5 -63t-19 -90.5z" />
<glyph unicode="&#xe4;" horiz-adv-x="974" d="M66 225q0 49 18.5 91t50.5 73.5t78 57.5t97 44.5t112 32.5t118.5 22.5t121.5 14.5v76q0 110 -41.5 160.5t-137.5 50.5q-85 0 -136 -32t-71 -116q-11 -46 -39.5 -69t-62.5 -23q-36 0 -62 23t-26 61q0 47 41 99q63 81 159 116t197 35q85 0 149.5 -17t105.5 -46t66.5 -71.5 t35.5 -89t10 -102.5v-536l108 -66v-14h-296v100q-42 -60 -117 -92.5t-166 -32.5q-65 0 -118 12t-98.5 39.5t-71 78t-25.5 120.5zM195 1206q0 47 33 81t79 34q47 0 81 -34t34 -81t-34 -80.5t-81 -33.5q-46 0 -79 33.5t-33 80.5zM262 238q0 -79 45.5 -123.5t114.5 -44.5 q107 0 173.5 66t66.5 163v178q-81 -8 -137 -17t-109 -26.5t-84.5 -42t-50.5 -63t-19 -90.5zM545 1206q0 47 33 81t79 34q47 0 81 -34t34 -81t-34 -80.5t-81 -33.5q-46 0 -79 33.5t-33 80.5z" />
<glyph unicode="&#xe5;" horiz-adv-x="974" d="M66 225q0 49 18.5 91t50.5 73.5t78 57.5t97 44.5t112 32.5t118.5 22.5t121.5 14.5v76q0 110 -41.5 160.5t-137.5 50.5q-85 0 -136 -32t-71 -116q-11 -46 -39.5 -69t-62.5 -23q-36 0 -62 23t-26 61q0 47 41 99q63 81 159 116t197 35q85 0 149.5 -17t105.5 -46t66.5 -71.5 t35.5 -89t10 -102.5v-536l108 -66v-14h-296v100q-42 -60 -117 -92.5t-166 -32.5q-65 0 -118 12t-98.5 39.5t-71 78t-25.5 120.5zM262 238q0 -79 45.5 -123.5t114.5 -44.5q107 0 173.5 66t66.5 163v178q-81 -8 -137 -17t-109 -26.5t-84.5 -42t-50.5 -63t-19 -90.5zM293 1274 q0 80 55.5 135t134.5 55q80 0 135.5 -55.5t55.5 -134.5q0 -80 -56 -135.5t-135 -55.5t-134.5 55.5t-55.5 135.5zM393 1274q0 -38 26 -64t64 -26t64 26t26 64t-26 64t-64 26t-64 -26t-26 -64z" />
<glyph unicode="&#xe6;" horiz-adv-x="1603" d="M66 225q0 49 18.5 91t50.5 73.5t78 57.5t97 44.5t112 32.5t118.5 22.5t121.5 14.5v76q0 110 -41.5 160.5t-137.5 50.5q-85 0 -136 -32t-71 -116q-11 -46 -39.5 -69t-62.5 -23q-36 0 -62 23t-26 61q0 47 41 99q65 83 153.5 117t202.5 34q233 0 318 -135q135 135 325 135 q184 0 306 -122.5t122 -303.5v-57h-677q0 -192 75.5 -290.5t212.5 -98.5q238 0 348 225l50 -45q-60 -130 -161.5 -202.5t-236.5 -72.5q-137 0 -252 58.5t-182 159.5q-40 -76 -103.5 -127t-125.5 -71t-123 -20q-65 0 -118 12t-98.5 39.5t-71 78t-25.5 120.5zM262 238 q0 -79 45.5 -123.5t114.5 -44.5q110 0 175 65t65 178v164q-83 -8 -137.5 -16.5t-108.5 -25t-85 -41t-50 -63.5t-19 -93zM879 553h487v18q0 51 -14 98.5t-42 88t-77 65.5t-111 25q-63 0 -110.5 -25.5t-74.5 -69t-41.5 -93.5t-16.5 -107z" />
<glyph unicode="&#xe7;" horiz-adv-x="1003" d="M53 459q0 111 44 205t114.5 153t155.5 92t172 33q89 0 172.5 -27.5t142.5 -83.5q68 -65 68 -129q0 -41 -28 -68.5t-65 -27.5q-34 0 -62.5 27t-41.5 82q-14 65 -57.5 99t-128.5 34q-90 0 -153 -57t-90.5 -142.5t-27.5 -189.5q0 -179 81 -284t214 -105q215 0 340 192 l41 -59q-44 -91 -154.5 -159.5t-226.5 -68.5q-15 0 -78 5l-36 -101q52 37 135 37q135 0 135 -125q0 -79 -57 -117.5t-150 -38.5q-101 0 -168 39l14 27q71 -25 123 -25q115 0 115 95q0 36 -20.5 54.5t-55.5 18.5q-82 0 -137 -55h-18l57 201q-168 37 -268.5 157.5 t-100.5 311.5z" />
<glyph unicode="&#xe8;" horiz-adv-x="1001" d="M59 459q0 141 66 253t171.5 171t227.5 59q184 0 306 -122.5t122 -303.5v-57h-678q0 -192 76 -290.5t213 -98.5q238 0 348 225l50 -45q-60 -130 -161.5 -202.5t-236.5 -72.5q-146 0 -258.5 54t-179 165t-66.5 265zM276 553h488v18q0 51 -14 98.5t-42 88t-77 65.5t-111 25 q-63 0 -110.5 -25.5t-75 -69t-42 -93.5t-16.5 -107zM322 1264q0 39 28.5 68.5t71.5 29.5q62 0 100 -53l183 -277h-48l-278 148q-57 32 -57 84z" />
<glyph unicode="&#xe9;" horiz-adv-x="1001" d="M59 459q0 141 66 253t171.5 171t227.5 59q184 0 306 -122.5t122 -303.5v-57h-678q0 -192 76 -290.5t213 -98.5q238 0 348 225l50 -45q-60 -130 -161.5 -202.5t-236.5 -72.5q-146 0 -258.5 54t-179 165t-66.5 265zM276 553h488v18q0 51 -14 98.5t-42 88t-77 65.5t-111 25 q-63 0 -110.5 -25.5t-75 -69t-42 -93.5t-16.5 -107zM328 1032l182 277q38 53 100 53q43 0 72 -29.5t29 -68.5q0 -51 -58 -84l-278 -148h-47z" />
<glyph unicode="&#xea;" horiz-adv-x="1001" d="M59 459q0 141 66 253t171.5 171t227.5 59q184 0 306 -122.5t122 -303.5v-57h-678q0 -192 76 -290.5t213 -98.5q238 0 348 225l50 -45q-60 -130 -161.5 -202.5t-236.5 -72.5q-146 0 -258.5 54t-179 165t-66.5 265zM250 1053l233 329h68l233 -329h-47l-221 153l-219 -153 h-47zM276 553h488v18q0 51 -14 98.5t-42 88t-77 65.5t-111 25q-63 0 -110.5 -25.5t-75 -69t-42 -93.5t-16.5 -107z" />
<glyph unicode="&#xeb;" horiz-adv-x="1001" d="M59 459q0 141 66 253t171.5 171t227.5 59q184 0 306 -122.5t122 -303.5v-57h-678q0 -192 76 -290.5t213 -98.5q238 0 348 225l50 -45q-60 -130 -161.5 -202.5t-236.5 -72.5q-146 0 -258.5 54t-179 165t-66.5 265zM236 1206q0 47 33 81t79 34q47 0 81 -34t34 -81 t-34 -80.5t-81 -33.5q-46 0 -79 33.5t-33 80.5zM276 553h488v18q0 51 -14 98.5t-42 88t-77 65.5t-111 25q-63 0 -110.5 -25.5t-75 -69t-42 -93.5t-16.5 -107zM586 1206q0 47 33 81t79 34q47 0 81 -34t34 -81t-34 -80.5t-81 -33.5q-46 0 -79 33.5t-33 80.5z" />
<glyph unicode="&#xec;" horiz-adv-x="487" d="M-2 1264q0 39 28.5 68.5t71.5 29.5q63 0 101 -53l182 -277h-47l-279 148q-57 32 -57 84zM31 0v14l108 66v731l-108 51v15l297 86v-883l108 -66v-14h-405z" />
<glyph unicode="&#xed;" horiz-adv-x="487" d="M27 1032l182 277q38 53 100 53q43 0 72 -29.5t29 -68.5q0 -51 -58 -84l-278 -148h-47zM33 0v14l108 66v731l-108 51v15l297 86v-883l108 -66v-14h-405z" />
<glyph unicode="&#xee;" horiz-adv-x="487" d="M-23 1053l234 329h68l233 -329h-47l-221 153l-219 -153h-48zM41 0v14l109 66v731l-109 51v15l297 86v-883l108 -66v-14h-405z" />
<glyph unicode="&#xef;" horiz-adv-x="487" d="M-45 1206q0 47 33.5 81t79.5 34q47 0 80.5 -34t33.5 -81t-33.5 -80.5t-80.5 -33.5q-46 0 -79.5 33.5t-33.5 80.5zM61 0v14l109 66v731l-109 51v15l297 86v-883l109 -66v-14h-406zM305 1206q0 47 33.5 81t79.5 34q47 0 80.5 -34t33.5 -81t-33.5 -80.5t-80.5 -33.5 q-46 0 -79.5 33.5t-33.5 80.5z" />
<glyph unicode="&#xf0;" horiz-adv-x="1077" d="M49 461q0 203 140 343t350 140q117 0 221 -49q-50 155 -158 287l-403 -131l-23 67l375 121q-91 93 -262 225h61q164 -92 289 -196l297 96l22 -68l-258 -84q178 -176 253 -352.5t75 -398.5q0 -203 -139.5 -344.5t-349.5 -141.5t-350 141.5t-140 344.5zM264 461 q0 -175 70 -283t205 -108t204.5 108t69.5 283q-3 175 -71.5 282t-202.5 107q-135 0 -205 -108t-70 -281z" />
<glyph unicode="&#xf1;" horiz-adv-x="1134" d="M45 0v14l109 66v729l-109 53v15l297 84v-220q10 8 27.5 21.5t69 48.5t99 61.5t107 48t103.5 21.5q128 0 182.5 -75t54.5 -216v-571l109 -66v-14h-406v14l109 66v571q0 94 -35.5 132t-106.5 38q-36 0 -81 -19t-84.5 -46t-73.5 -54t-54 -46l-20 -19v-557l109 -66v-14h-406z M170 1100l5.5 27.5t22 61t43.5 77t74.5 61t110.5 27.5q50 0 89.5 -13.5t64 -33t46.5 -38.5t51 -32.5t64 -13.5q39 0 73.5 13t55 31.5t35.5 37.5t21 32l6 13h35l-5.5 -27.5t-22 -61t-43.5 -77t-74.5 -61t-110.5 -27.5t-107.5 20.5t-70.5 45t-60 45t-78 20.5q-39 0 -73.5 -13 t-55 -31.5t-35 -37.5t-20.5 -32l-6 -13h-35z" />
<glyph unicode="&#xf2;" horiz-adv-x="1077" d="M49 459q0 203 140 343t350 140t349.5 -140t139.5 -343t-139.5 -343.5t-349.5 -140.5t-350 140.5t-140 343.5zM264 459q0 -174 70 -281.5t205 -107.5t204.5 107.5t69.5 281.5t-69.5 281.5t-204.5 107.5t-205 -107.5t-70 -281.5zM344 1264q0 39 28.5 68.5t71.5 29.5 q63 0 101 -53l182 -277h-47l-279 148q-57 32 -57 84z" />
<glyph unicode="&#xf3;" horiz-adv-x="1077" d="M49 459q0 203 140 343t350 140t349.5 -140t139.5 -343t-139.5 -343.5t-349.5 -140.5t-350 140.5t-140 343.5zM264 459q0 -174 70 -281.5t205 -107.5t204.5 107.5t69.5 281.5t-69.5 281.5t-204.5 107.5t-205 -107.5t-70 -281.5zM350 1032l182 277q38 53 101 53 q43 0 71.5 -29.5t28.5 -68.5q0 -52 -57 -84l-279 -148h-47z" />
<glyph unicode="&#xf4;" horiz-adv-x="1077" d="M49 459q0 203 140 343t350 140t349.5 -140t139.5 -343t-139.5 -343.5t-349.5 -140.5t-350 140.5t-140 343.5zM264 459q0 -174 70 -281.5t205 -107.5t204.5 107.5t69.5 281.5t-69.5 281.5t-204.5 107.5t-205 -107.5t-70 -281.5zM270 1053l234 329h67l234 -329h-47 l-221 153l-220 -153h-47z" />
<glyph unicode="&#xf5;" horiz-adv-x="1077" d="M49 459q0 203 140 343t350 140t349.5 -140t139.5 -343t-139.5 -343.5t-349.5 -140.5t-350 140.5t-140 343.5zM141 1100l5.5 27.5t22 61t43.5 77t74.5 61t110.5 27.5t107.5 -20.5t70.5 -45t60 -45t78 -20.5q39 0 73.5 13t55 31.5t35 37.5t20.5 32l6 13h35l-5.5 -27.5 t-22 -61t-43.5 -77t-74.5 -61t-110.5 -27.5q-50 0 -89.5 13.5t-64 33t-46.5 38.5t-51 32.5t-64 13.5q-39 0 -73.5 -13t-55 -31.5t-35.5 -37.5t-21 -32l-6 -13h-35zM264 459q0 -174 70 -281.5t205 -107.5t204.5 107.5t69.5 281.5t-69.5 281.5t-204.5 107.5t-205 -107.5 t-70 -281.5z" />
<glyph unicode="&#xf6;" horiz-adv-x="1077" d="M49 459q0 203 140 343t350 140t349.5 -140t139.5 -343t-139.5 -343.5t-349.5 -140.5t-350 140.5t-140 343.5zM250 1206q0 47 33 81t79 34q47 0 81 -34t34 -81t-34 -80.5t-81 -33.5q-46 0 -79 33.5t-33 80.5zM264 459q0 -174 70 -281.5t205 -107.5t204.5 107.5t69.5 281.5 t-69.5 281.5t-204.5 107.5t-205 -107.5t-70 -281.5zM600 1206q0 47 33.5 81t79.5 34q47 0 80.5 -34t33.5 -81t-33.5 -80.5t-80.5 -33.5q-46 0 -79.5 33.5t-33.5 80.5z" />
<glyph unicode="&#xf7;" horiz-adv-x="1042" d="M164 557v102h713v-102h-713zM393 262q0 51 37.5 89t89.5 38q51 0 89 -38t38 -89q0 -52 -38 -89.5t-89 -37.5q-52 0 -89.5 37.5t-37.5 89.5zM393 958q0 51 37.5 89t89.5 38q51 0 89 -38t38 -89q0 -52 -38 -89.5t-89 -37.5q-52 0 -89.5 37.5t-37.5 89.5z" />
<glyph unicode="&#xf8;" horiz-adv-x="1077" d="M49 459q0 203 140 343t350 140q177 0 309 -104l96 96l68 -72l-94 -94q110 -132 110 -309q0 -203 -139.5 -343.5t-349.5 -140.5q-180 0 -310 105l-96 -96l-70 71l95 95q-109 131 -109 309zM264 459q0 -93 23 -180l458 456q-73 113 -206 113q-135 0 -205 -107.5t-70 -281.5 zM330 180q71 -110 209 -110q135 0 204.5 107.5t69.5 281.5q0 97 -25 180z" />
<glyph unicode="&#xf9;" horiz-adv-x="1263" d="M82 862v15l297 84v-695q0 -94 35 -132t106 -38q36 0 81 19t84.5 46t74 54.5t54.5 46.5l20 19v528l-109 53v15l297 84v-881l108 -66v-14h-296v176q-9 -8 -25.5 -21.5t-65 -48.5t-94 -61.5t-105 -48t-106.5 -21.5q-135 0 -191.5 74.5t-56.5 216.5v543zM416 1264 q0 39 28.5 68.5t71.5 29.5q62 0 100 -53l183 -277h-47l-279 148q-57 32 -57 84z" />
<glyph unicode="&#xfa;" horiz-adv-x="1263" d="M82 862v15l297 84v-695q0 -94 35 -132t106 -38q36 0 81 19t84.5 46t74 54.5t54.5 46.5l20 19v528l-109 53v15l297 84v-881l108 -66v-14h-296v176q-9 -8 -25.5 -21.5t-65 -48.5t-94 -61.5t-105 -48t-106.5 -21.5q-135 0 -191.5 74.5t-56.5 216.5v543zM463 1032l182 277 q38 53 100 53q43 0 72 -29.5t29 -68.5q0 -51 -58 -84l-278 -148h-47z" />
<glyph unicode="&#xfb;" horiz-adv-x="1263" d="M82 862v15l297 84v-695q0 -94 35 -132t106 -38q36 0 81 19t84.5 46t74 54.5t54.5 46.5l20 19v528l-109 53v15l297 84v-881l108 -66v-14h-296v176q-9 -8 -25.5 -21.5t-65 -48.5t-94 -61.5t-105 -48t-106.5 -21.5q-135 0 -191.5 74.5t-56.5 216.5v543zM344 1053l234 329h67 l234 -329h-48l-221 153l-219 -153h-47z" />
<glyph unicode="&#xfc;" horiz-adv-x="1263" d="M82 862v15l297 84v-695q0 -94 35 -132t106 -38q36 0 81 19t84.5 46t74 54.5t54.5 46.5l20 19v528l-109 53v15l297 84v-881l108 -66v-14h-296v176q-9 -8 -25.5 -21.5t-65 -48.5t-94 -61.5t-105 -48t-106.5 -21.5q-135 0 -191.5 74.5t-56.5 216.5v543zM322 1206q0 47 33 81 t79 34q47 0 81 -34t34 -81t-34 -80.5t-81 -33.5q-46 0 -79 33.5t-33 80.5zM672 1206q0 47 33 81t79 34q47 0 81 -34t34 -81t-34 -80.5t-81 -33.5q-46 0 -79 33.5t-33 80.5z" />
<glyph unicode="&#xfd;" horiz-adv-x="952" d="M-4 903v15h387v-15l-86 -51l207 -535l16 -67l17 76l202 526l-84 51v15h281v-15l-111 -65l-463 -1223q-29 -65 -55 -105t-51.5 -57.5t-44.5 -22.5t-47 -5q-44 0 -69 27.5t-25 64.5q0 31 18 56t53 34q88 22 116 38t50 68l113 307l-318 820zM354 1073l183 277q38 53 100 53 q43 0 71.5 -29.5t28.5 -68.5q0 -52 -57 -84l-279 -148h-47z" />
<glyph unicode="&#xfe;" horiz-adv-x="1110" d="M10 -537l129 66v1868l-108 53v14l297 84v-739q37 57 110.5 95t149.5 38q206 0 334.5 -133.5t128.5 -349.5q0 -134 -54 -243t-161 -175t-248 -66q-75 0 -143.5 29.5t-116.5 79.5v-555l129 -66v-14h-447v14zM328 313q0 -106 76.5 -174.5t183.5 -68.5q122 0 185 102t63 287 q0 188 -62.5 288.5t-185.5 100.5q-107 0 -183.5 -74.5t-76.5 -191.5v-269z" />
<glyph unicode="&#xff;" horiz-adv-x="952" d="M-4 903v15h387v-15l-86 -51l207 -535l16 -67l17 76l202 526l-84 51v15h281v-15l-111 -65l-463 -1223q-29 -65 -55 -105t-51.5 -57.5t-44.5 -22.5t-47 -5q-44 0 -69 27.5t-25 64.5q0 31 18 56t53 34q88 22 116 38t50 68l113 307l-318 820zM231 1206q0 47 33.5 81t79.5 34 q47 0 81 -34t34 -81t-34 -80.5t-81 -33.5q-46 0 -79.5 33.5t-33.5 80.5zM582 1206q0 47 33 81t79 34q47 0 81 -34t34 -81t-34 -80.5t-81 -33.5q-46 0 -79 33.5t-33 80.5z" />
<glyph unicode="&#x152;" horiz-adv-x="2187" d="M68 733q0 212 89 384t253.5 272t375.5 100q100 0 183 -25h1048l37 -301h-14l-144 199h-550l-15 -14v-500l15 -14h495l70 118h12v-338h-12l-70 117h-495l-15 -14v-600l15 -15h569l199 228h14l-51 -330h-1110q-83 -25 -181 -25q-210 0 -375 100.5t-254 273t-89 384.5z M313 733q0 -143 29.5 -261.5t87 -207t148.5 -137.5t208 -49q60 0 105 6.5t80 26.5t58.5 41.5t40 67t25.5 85.5t14 115.5t6 139.5t1 173q0 110 -1 174t-6 139.5t-14 115.5t-25.5 85.5t-40 66t-58.5 40t-80 26t-105 6.5q-117 0 -208 -48t-148.5 -135.5t-87 -206.5t-29.5 -263z " />
<glyph unicode="&#x153;" horiz-adv-x="1744" d="M49 461q0 203 140 343t350 140q119 0 215 -48.5t159 -135.5q62 86 155 134t200 48q184 0 306 -122.5t122 -303.5v-57h-678q0 -192 76 -290.5t213 -98.5q238 0 348 225l49 -45q-60 -130 -161.5 -202.5t-235.5 -72.5q-272 0 -398 179q-63 -84 -158 -131.5t-212 -47.5 q-210 0 -350 141.5t-140 344.5zM264 461q0 -175 70 -283t205 -108t204.5 108t69.5 283q0 173 -69.5 281t-204.5 108t-205 -108t-70 -281zM1020 553h487v18q0 51 -14 98.5t-42 88t-76.5 65.5t-110.5 25q-63 0 -110.5 -25.5t-75 -69t-42 -93.5t-16.5 -107z" />
<glyph unicode="&#x178;" horiz-adv-x="1398" d="M43 1450v14h541v-14l-140 -102l299 -463l29 -123l27 117l297 469l-140 102v14h402v-14l-139 -102l-373 -588v-643l139 -103v-14h-493v14l139 103v532l-449 699zM485 1753q0 47 33.5 81t79.5 34q47 0 81 -34t34 -81t-34 -81t-81 -34q-46 0 -79.5 34t-33.5 81zM836 1753 q0 47 33 81t79 34q47 0 81 -34t34 -81t-34 -81t-81 -34q-46 0 -79 34t-33 81z" />
<glyph unicode="&#x2c6;" horiz-adv-x="675" d="M72 1135l233 329h68l233 -329h-47l-221 153l-219 -153h-47z" />
<glyph unicode="&#x2dc;" horiz-adv-x="675" d="M-59 1141l5.5 27.5t22 61t43.5 77t74.5 61t110.5 27.5q50 0 89.5 -13.5t64 -32.5t46.5 -38.5t51 -33t64 -13.5q39 0 73.5 13t55 32t35 37.5t20.5 31.5l6 13h35l-5.5 -27.5t-22 -61t-43.5 -77t-74.5 -61t-110.5 -27.5q-50 0 -89.5 13.5t-64 32.5t-46.5 38.5t-51 33 t-64 13.5q-39 0 -73.5 -13t-55 -32t-35.5 -37.5t-21 -31.5l-6 -13h-34z" />
<glyph unicode="&#x2000;" horiz-adv-x="995" />
<glyph unicode="&#x2001;" horiz-adv-x="1991" />
<glyph unicode="&#x2002;" horiz-adv-x="995" />
<glyph unicode="&#x2003;" horiz-adv-x="1991" />
<glyph unicode="&#x2004;" horiz-adv-x="663" />
<glyph unicode="&#x2005;" horiz-adv-x="497" />
<glyph unicode="&#x2006;" horiz-adv-x="331" />
<glyph unicode="&#x2007;" horiz-adv-x="331" />
<glyph unicode="&#x2008;" horiz-adv-x="248" />
<glyph unicode="&#x2009;" horiz-adv-x="398" />
<glyph unicode="&#x200a;" horiz-adv-x="110" />
<glyph unicode="&#x2010;" horiz-adv-x="864" d="M70 596v102h712v-102h-712z" />
<glyph unicode="&#x2011;" horiz-adv-x="864" d="M70 596v102h712v-102h-712z" />
<glyph unicode="&#x2012;" horiz-adv-x="864" d="M70 596v102h712v-102h-712z" />
<glyph unicode="&#x2013;" horiz-adv-x="1048" d="M0 596v102h1049v-102h-1049z" />
<glyph unicode="&#x2014;" horiz-adv-x="1681" d="M0 596v102h1681v-102h-1681z" />
<glyph unicode="&#x2018;" horiz-adv-x="630" d="M221 1135q0 197 209 329l21 -32q-70 -55 -96.5 -89t-26.5 -67q0 -21 14.5 -40.5t26 -28t37.5 -25.5q43 -28 62 -57t19 -70q0 -49 -34 -79t-82 -30q-75 0 -112.5 49.5t-37.5 139.5z" />
<glyph unicode="&#x2019;" horiz-adv-x="630" d="M143 1356q0 49 34.5 78.5t82.5 29.5q75 0 112.5 -49t37.5 -139q0 -198 -209 -330l-21 33q70 55 96.5 89t26.5 67q0 21 -14.5 40.5t-26 28t-37.5 25.5q-44 28 -63 57t-19 70z" />
<glyph unicode="&#x201a;" horiz-adv-x="630" d="M143 127q0 49 34.5 79t82.5 30q75 0 112.5 -49.5t37.5 -139.5q0 -198 -209 -330l-21 33q70 55 96.5 89t26.5 67q0 21 -14.5 40.5t-26 28t-37.5 25.5q-44 28 -63 57t-19 70z" />
<glyph unicode="&#x201c;" horiz-adv-x="968" d="M221 1135q0 197 209 329l21 -32q-70 -55 -96.5 -89t-26.5 -67q0 -21 14.5 -40.5t26 -28t37.5 -25.5q43 -28 62 -57t19 -70q0 -49 -34 -79t-82 -30q-75 0 -112.5 49.5t-37.5 139.5zM559 1135q0 197 209 329l20 -32q-69 -55 -95.5 -89t-26.5 -67q0 -21 14 -40.5t25.5 -28 t37.5 -25.5q44 -28 63 -57t19 -70q0 -49 -34 -79t-82 -30q-75 0 -112.5 49.5t-37.5 139.5z" />
<glyph unicode="&#x201d;" horiz-adv-x="968" d="M143 1356q0 49 34.5 78.5t82.5 29.5q75 0 112.5 -49t37.5 -139q0 -198 -209 -330l-21 33q70 55 96.5 89t26.5 67q0 21 -14.5 40.5t-26 28t-37.5 25.5q-44 28 -63 57t-19 70zM481 1356q0 49 34.5 78.5t82.5 29.5q75 0 112.5 -49t37.5 -139q0 -198 -209 -330l-21 33 q70 55 96.5 89t26.5 67q0 21 -14.5 40.5t-26 28t-37.5 25.5q-44 28 -63 57t-19 70z" />
<glyph unicode="&#x201e;" horiz-adv-x="968" d="M143 127q0 49 34.5 79t82.5 30q75 0 112.5 -49.5t37.5 -139.5q0 -198 -209 -330l-21 33q70 55 96.5 89t26.5 67q0 21 -14.5 40.5t-26 28t-37.5 25.5q-44 28 -63 57t-19 70zM481 127q0 49 34.5 79t82.5 30q75 0 112.5 -49.5t37.5 -139.5q0 -198 -209 -330l-21 33 q70 55 96.5 89t26.5 67q0 21 -14.5 40.5t-26 28t-37.5 25.5q-44 28 -63 57t-19 70z" />
<glyph unicode="&#x2022;" horiz-adv-x="565" d="M82 614q0 83 59 142t142 59t141.5 -59t58.5 -142t-58.5 -141.5t-141.5 -58.5t-142 58.5t-59 141.5z" />
<glyph unicode="&#x2026;" horiz-adv-x="1388" d="M96 109q0 54 39 93.5t94 39.5q54 0 93.5 -39.5t39.5 -93.5q0 -55 -39.5 -94.5t-93.5 -39.5q-55 0 -94 39t-39 95zM547 109q0 54 39 93.5t94 39.5q54 0 93.5 -39.5t39.5 -93.5q0 -55 -39.5 -94.5t-93.5 -39.5q-55 0 -94 39t-39 95zM997 109q0 54 39 93.5t94 39.5 q54 0 94 -39.5t40 -93.5q0 -55 -40 -94.5t-94 -39.5q-55 0 -94 39t-39 95z" />
<glyph unicode="&#x202f;" horiz-adv-x="398" />
<glyph unicode="&#x2039;" horiz-adv-x="671" d="M82 502v37l498 501v-172l-338 -348l338 -348v-172z" />
<glyph unicode="&#x203a;" horiz-adv-x="671" d="M92 0v172l338 348l-338 348v172l498 -501v-37z" />
<glyph unicode="&#x205f;" horiz-adv-x="497" />
<glyph unicode="&#x20ac;" horiz-adv-x="1126" d="M-18 553l34 106h142q-2 25 -2 74q0 51 2 76h-176l34 106h152q38 268 182 421t355 153q105 0 195.5 -34.5t154.5 -96.5v-254h-29q-95 282 -321 282q-142 0 -226 -124t-108 -347h460l-34 -106h-432q-3 -37 -3 -76t3 -74h387l-35 -106h-346q27 -221 114.5 -348t219.5 -127 q75 0 134 22t107 69.5t84 103.5t78 141l39 -23q-22 -62 -43.5 -110.5t-50 -98t-62.5 -85t-76 -64.5t-95 -43.5t-115 -14.5q-213 0 -356.5 154.5t-180.5 423.5h-186z" />
<glyph unicode="&#x2122;" horiz-adv-x="1574" d="M61 1298l23 166h561l23 -166h-15l-86 99h-135l-6 -8v-500l59 -35v-16h-239v16l57 35v500l-6 8h-131l-90 -99h-15zM713 838v16l59 35v524l-59 37v14h213l186 -460l12 -58l9 45l188 473h203v-14l-60 -37v-524l60 -35v-16h-236v16l60 35v483l-11 -41l-196 -493h-94l-195 477 l-10 57v-483l57 -35v-16h-186z" />
<glyph unicode="&#x25fc;" horiz-adv-x="921" d="M0 0v922h922v-922h-922z" />
</font>
</defs>
</svg>
